<mxfile host="app.diagrams.net" modified="2024-07-22T12:51:13.530Z" agent="Mozilla/5.0 (Windows NT 10.0; Win64; x64) AppleWebKit/537.36 (KHTML, like Gecko) Chrome/126.0.0.0 Safari/537.36" etag="LXz-E86OWIsBhlDuvXCS" version="24.7.1" type="google">
  <diagram name="ERD" id="soLKmazKyZqOw-sYmAMP">
    <mxGraphModel dx="3088" dy="1915" grid="1" gridSize="10" guides="1" tooltips="1" connect="1" arrows="1" fold="1" page="1" pageScale="1" pageWidth="827" pageHeight="1169" math="0" shadow="0">
      <root>
        <mxCell id="0" />
        <mxCell id="1" parent="0" />
        <mxCell id="kAmNbd_d05ljZrrda5HX-1" value="Volunteer" style="rounded=0;whiteSpace=wrap;html=1;" parent="1" vertex="1">
          <mxGeometry x="-180" y="360" width="220" height="100" as="geometry" />
        </mxCell>
        <mxCell id="kAmNbd_d05ljZrrda5HX-3" value="&lt;font size=&quot;1&quot;&gt;Technical Support&lt;/font&gt;" style="rounded=0;whiteSpace=wrap;html=1;" parent="1" vertex="1">
          <mxGeometry x="277.5" y="-436" width="120" height="60" as="geometry" />
        </mxCell>
        <mxCell id="kAmNbd_d05ljZrrda5HX-5" value="Location" style="rounded=0;whiteSpace=wrap;html=1;" parent="1" vertex="1">
          <mxGeometry x="804.5" y="-276" width="120" height="60" as="geometry" />
        </mxCell>
        <mxCell id="kAmNbd_d05ljZrrda5HX-8" value="MedicalRecord" style="rounded=0;whiteSpace=wrap;html=1;" parent="1" vertex="1">
          <mxGeometry x="-100.25" y="1380" width="120" height="60" as="geometry" />
        </mxCell>
        <mxCell id="kAmNbd_d05ljZrrda5HX-9" value="Language" style="rounded=0;whiteSpace=wrap;html=1;" parent="1" vertex="1">
          <mxGeometry x="-745" y="90" width="150" height="60" as="geometry" />
        </mxCell>
        <mxCell id="kAmNbd_d05ljZrrda5HX-10" value="Uniform" style="rounded=0;whiteSpace=wrap;html=1;" parent="1" vertex="1">
          <mxGeometry x="180" y="740" width="120" height="60" as="geometry" />
        </mxCell>
        <mxCell id="kAmNbd_d05ljZrrda5HX-11" value="Transport" style="rounded=0;whiteSpace=wrap;html=1;" parent="1" vertex="1">
          <mxGeometry x="990" y="670" width="120" height="60" as="geometry" />
        </mxCell>
        <mxCell id="kAmNbd_d05ljZrrda5HX-14" value="Supervisor" style="rounded=0;whiteSpace=wrap;html=1;" parent="1" vertex="1">
          <mxGeometry x="-130" y="795.5" width="120" height="60" as="geometry" />
        </mxCell>
        <mxCell id="kAmNbd_d05ljZrrda5HX-16" value="Training" style="rounded=0;whiteSpace=wrap;html=1;" parent="1" vertex="1">
          <mxGeometry x="277.5" y="540" width="120" height="60" as="geometry" />
        </mxCell>
        <mxCell id="kAmNbd_d05ljZrrda5HX-17" value="Reception" style="rounded=0;whiteSpace=wrap;html=1;" parent="1" vertex="1">
          <mxGeometry x="517.5" y="380" width="120" height="60" as="geometry" />
        </mxCell>
        <mxCell id="kAmNbd_d05ljZrrda5HX-21" value="Athlete" style="rounded=0;whiteSpace=wrap;html=1;" parent="1" vertex="1">
          <mxGeometry x="517.5" y="1030" width="120" height="60" as="geometry" />
        </mxCell>
        <mxCell id="kAmNbd_d05ljZrrda5HX-22" value="Guest" style="rounded=0;whiteSpace=wrap;html=1;" parent="1" vertex="1">
          <mxGeometry x="1270" y="380" width="120" height="60" as="geometry" />
        </mxCell>
        <mxCell id="kAmNbd_d05ljZrrda5HX-24" value="EmergencyContact" style="rounded=0;whiteSpace=wrap;html=1;" parent="1" vertex="1">
          <mxGeometry x="-880" y="380" width="180" height="60" as="geometry" />
        </mxCell>
        <mxCell id="kAmNbd_d05ljZrrda5HX-26" value="Task" style="rounded=0;whiteSpace=wrap;html=1;" parent="1" vertex="1">
          <mxGeometry x="-130" y="-78" width="120" height="60" as="geometry" />
        </mxCell>
        <mxCell id="kAmNbd_d05ljZrrda5HX-27" value="Equipment" style="rounded=0;whiteSpace=wrap;html=1;" parent="1" vertex="1">
          <mxGeometry x="12.5" y="-276" width="120" height="60" as="geometry" />
        </mxCell>
        <mxCell id="kAmNbd_d05ljZrrda5HX-28" value="Feedback" style="rounded=0;whiteSpace=wrap;html=1;" parent="1" vertex="1">
          <mxGeometry x="-940" y="593" width="120" height="60" as="geometry" />
        </mxCell>
        <mxCell id="QD1m-1uply2OvwpmF5vF-6" value="manage" style="rhombus;whiteSpace=wrap;html=1;" parent="1" vertex="1">
          <mxGeometry x="-110" y="570" width="80" height="140" as="geometry" />
        </mxCell>
        <mxCell id="QD1m-1uply2OvwpmF5vF-11" value="" style="endArrow=none;html=1;rounded=0;entryX=0.5;entryY=1;entryDx=0;entryDy=0;exitX=0.5;exitY=0;exitDx=0;exitDy=0;" parent="1" source="QD1m-1uply2OvwpmF5vF-6" target="kAmNbd_d05ljZrrda5HX-1" edge="1">
          <mxGeometry width="50" height="50" relative="1" as="geometry">
            <mxPoint x="20" y="480" as="sourcePoint" />
            <mxPoint x="70" y="430" as="targetPoint" />
          </mxGeometry>
        </mxCell>
        <mxCell id="QD1m-1uply2OvwpmF5vF-21" value="Attendence" style="shape=associativeEntity;whiteSpace=wrap;html=1;align=center;" parent="1" vertex="1">
          <mxGeometry x="267.5" y="380" width="140" height="60" as="geometry" />
        </mxCell>
        <mxCell id="QD1m-1uply2OvwpmF5vF-22" value="" style="endArrow=none;html=1;rounded=0;exitX=1;exitY=0.5;exitDx=0;exitDy=0;entryX=0;entryY=0.5;entryDx=0;entryDy=0;" parent="1" source="kAmNbd_d05ljZrrda5HX-1" target="QD1m-1uply2OvwpmF5vF-21" edge="1">
          <mxGeometry relative="1" as="geometry">
            <mxPoint x="40" y="270" as="sourcePoint" />
            <mxPoint x="200" y="270" as="targetPoint" />
          </mxGeometry>
        </mxCell>
        <mxCell id="QD1m-1uply2OvwpmF5vF-40" value="Event" style="shape=associativeEntity;whiteSpace=wrap;html=1;align=center;" parent="1" vertex="1">
          <mxGeometry x="267.5" y="-276" width="140" height="60" as="geometry" />
        </mxCell>
        <mxCell id="QD1m-1uply2OvwpmF5vF-46" value="Sporting" style="whiteSpace=wrap;html=1;align=center;" parent="1" vertex="1">
          <mxGeometry x="520" y="1590" width="125" height="65" as="geometry" />
        </mxCell>
        <mxCell id="QD1m-1uply2OvwpmF5vF-49" value="Assign" style="rhombus;whiteSpace=wrap;html=1;" parent="1" vertex="1">
          <mxGeometry x="-110" y="80" width="80" height="150" as="geometry" />
        </mxCell>
        <mxCell id="QD1m-1uply2OvwpmF5vF-51" value="" style="endArrow=none;html=1;rounded=0;entryX=0.5;entryY=1;entryDx=0;entryDy=0;exitX=0.5;exitY=0;exitDx=0;exitDy=0;" parent="1" source="QD1m-1uply2OvwpmF5vF-49" target="kAmNbd_d05ljZrrda5HX-26" edge="1">
          <mxGeometry relative="1" as="geometry">
            <mxPoint x="-65" y="-50" as="sourcePoint" />
            <mxPoint x="-225" y="-200" as="targetPoint" />
          </mxGeometry>
        </mxCell>
        <mxCell id="QD1m-1uply2OvwpmF5vF-52" value="" style="endArrow=none;html=1;rounded=0;exitX=0.5;exitY=0;exitDx=0;exitDy=0;entryX=0.5;entryY=1;entryDx=0;entryDy=0;" parent="1" source="kAmNbd_d05ljZrrda5HX-1" target="QD1m-1uply2OvwpmF5vF-49" edge="1">
          <mxGeometry relative="1" as="geometry">
            <mxPoint x="80" y="120" as="sourcePoint" />
            <mxPoint x="240" y="120" as="targetPoint" />
          </mxGeometry>
        </mxCell>
        <mxCell id="QD1m-1uply2OvwpmF5vF-60" value="" style="endArrow=none;html=1;rounded=0;exitX=0.5;exitY=1;exitDx=0;exitDy=0;entryX=0.5;entryY=0;entryDx=0;entryDy=0;" parent="1" source="QD1m-1uply2OvwpmF5vF-6" target="kAmNbd_d05ljZrrda5HX-14" edge="1">
          <mxGeometry width="50" height="50" relative="1" as="geometry">
            <mxPoint x="140" y="615.5" as="sourcePoint" />
            <mxPoint x="-70" y="765.5" as="targetPoint" />
          </mxGeometry>
        </mxCell>
        <mxCell id="kAmNbd_d05ljZrrda5HX-20" value="CustomerService" style="rounded=0;whiteSpace=wrap;html=1;" parent="1" vertex="1">
          <mxGeometry x="651.25" y="25" width="210" height="60" as="geometry" />
        </mxCell>
        <mxCell id="QD1m-1uply2OvwpmF5vF-108" value="" style="endArrow=none;html=1;rounded=0;exitX=1;exitY=0.5;exitDx=0;exitDy=0;entryX=0;entryY=0.5;entryDx=0;entryDy=0;" parent="1" source="QD1m-1uply2OvwpmF5vF-40" target="kAmNbd_d05ljZrrda5HX-5" edge="1">
          <mxGeometry width="50" height="50" relative="1" as="geometry">
            <mxPoint x="380" y="-376" as="sourcePoint" />
            <mxPoint x="430" y="-426" as="targetPoint" />
          </mxGeometry>
        </mxCell>
        <mxCell id="QD1m-1uply2OvwpmF5vF-109" value="" style="endArrow=none;html=1;rounded=0;entryX=0;entryY=0.5;entryDx=0;entryDy=0;exitX=1;exitY=0.5;exitDx=0;exitDy=0;" parent="1" source="kAmNbd_d05ljZrrda5HX-27" target="QD1m-1uply2OvwpmF5vF-40" edge="1">
          <mxGeometry width="50" height="50" relative="1" as="geometry">
            <mxPoint x="182.5" y="-246" as="sourcePoint" />
            <mxPoint x="430" y="-256" as="targetPoint" />
          </mxGeometry>
        </mxCell>
        <mxCell id="QD1m-1uply2OvwpmF5vF-110" value="" style="endArrow=none;html=1;rounded=0;entryX=0;entryY=0.5;entryDx=0;entryDy=0;exitX=1;exitY=0.5;exitDx=0;exitDy=0;" parent="1" source="QD1m-1uply2OvwpmF5vF-21" target="kAmNbd_d05ljZrrda5HX-17" edge="1">
          <mxGeometry width="50" height="50" relative="1" as="geometry">
            <mxPoint x="397.5" y="460" as="sourcePoint" />
            <mxPoint x="447.5" y="410" as="targetPoint" />
          </mxGeometry>
        </mxCell>
        <mxCell id="QD1m-1uply2OvwpmF5vF-113" value="" style="endArrow=none;html=1;rounded=0;entryX=0.5;entryY=1;entryDx=0;entryDy=0;exitX=0.5;exitY=0;exitDx=0;exitDy=0;" parent="1" source="QD1m-1uply2OvwpmF5vF-21" target="QD1m-1uply2OvwpmF5vF-40" edge="1">
          <mxGeometry width="50" height="50" relative="1" as="geometry">
            <mxPoint x="397.5" y="460" as="sourcePoint" />
            <mxPoint x="447.5" y="410" as="targetPoint" />
          </mxGeometry>
        </mxCell>
        <mxCell id="QD1m-1uply2OvwpmF5vF-115" value="Have" style="rhombus;whiteSpace=wrap;html=1;" parent="1" vertex="1">
          <mxGeometry y="570" width="80" height="80" as="geometry" />
        </mxCell>
        <mxCell id="QD1m-1uply2OvwpmF5vF-116" value="" style="endArrow=none;html=1;rounded=0;entryX=0.899;entryY=1.008;entryDx=0;entryDy=0;entryPerimeter=0;exitX=0;exitY=0;exitDx=0;exitDy=0;" parent="1" source="QD1m-1uply2OvwpmF5vF-115" target="kAmNbd_d05ljZrrda5HX-1" edge="1">
          <mxGeometry width="50" height="50" relative="1" as="geometry">
            <mxPoint y="530" as="sourcePoint" />
            <mxPoint x="50" y="480" as="targetPoint" />
          </mxGeometry>
        </mxCell>
        <mxCell id="QD1m-1uply2OvwpmF5vF-120" value="Have" style="rhombus;whiteSpace=wrap;html=1;" parent="1" vertex="1">
          <mxGeometry x="-598" y="370" width="230" height="80" as="geometry" />
        </mxCell>
        <mxCell id="QD1m-1uply2OvwpmF5vF-121" value="" style="endArrow=none;html=1;rounded=0;entryX=0;entryY=0.5;entryDx=0;entryDy=0;exitX=1;exitY=0.5;exitDx=0;exitDy=0;" parent="1" source="kAmNbd_d05ljZrrda5HX-24" target="QD1m-1uply2OvwpmF5vF-120" edge="1">
          <mxGeometry width="50" height="50" relative="1" as="geometry">
            <mxPoint x="-510" y="500" as="sourcePoint" />
            <mxPoint x="-440" y="410" as="targetPoint" />
            <Array as="points" />
          </mxGeometry>
        </mxCell>
        <mxCell id="QD1m-1uply2OvwpmF5vF-124" value="" style="endArrow=none;html=1;rounded=0;entryX=0;entryY=0.5;entryDx=0;entryDy=0;exitX=1;exitY=0.5;exitDx=0;exitDy=0;" parent="1" source="QD1m-1uply2OvwpmF5vF-120" target="kAmNbd_d05ljZrrda5HX-1" edge="1">
          <mxGeometry width="50" height="50" relative="1" as="geometry">
            <mxPoint x="-233" y="540" as="sourcePoint" />
            <mxPoint x="-183" y="490" as="targetPoint" />
          </mxGeometry>
        </mxCell>
        <mxCell id="QD1m-1uply2OvwpmF5vF-125" value="Know" style="rhombus;whiteSpace=wrap;html=1;" parent="1" vertex="1">
          <mxGeometry x="-500" y="240" width="170" height="80" as="geometry" />
        </mxCell>
        <mxCell id="QD1m-1uply2OvwpmF5vF-126" value="" style="endArrow=none;html=1;rounded=0;entryX=1;entryY=1;entryDx=0;entryDy=0;exitX=0;exitY=0;exitDx=0;exitDy=0;" parent="1" source="QD1m-1uply2OvwpmF5vF-125" target="kAmNbd_d05ljZrrda5HX-9" edge="1">
          <mxGeometry width="50" height="50" relative="1" as="geometry">
            <mxPoint x="-473" y="310" as="sourcePoint" />
            <mxPoint x="-433" y="190" as="targetPoint" />
          </mxGeometry>
        </mxCell>
        <mxCell id="QD1m-1uply2OvwpmF5vF-127" value="" style="endArrow=none;html=1;rounded=0;entryX=1;entryY=1;entryDx=0;entryDy=0;exitX=0;exitY=0.25;exitDx=0;exitDy=0;" parent="1" source="kAmNbd_d05ljZrrda5HX-1" target="QD1m-1uply2OvwpmF5vF-125" edge="1">
          <mxGeometry width="50" height="50" relative="1" as="geometry">
            <mxPoint x="-170" y="330" as="sourcePoint" />
            <mxPoint x="-260" y="270" as="targetPoint" />
          </mxGeometry>
        </mxCell>
        <mxCell id="QD1m-1uply2OvwpmF5vF-151" value="Receice" style="rhombus;whiteSpace=wrap;html=1;" parent="1" vertex="1">
          <mxGeometry x="-640" y="485" width="310" height="80" as="geometry" />
        </mxCell>
        <mxCell id="QD1m-1uply2OvwpmF5vF-152" value="" style="endArrow=none;html=1;rounded=0;entryX=0.5;entryY=1;entryDx=0;entryDy=0;exitX=0.5;exitY=0;exitDx=0;exitDy=0;" parent="1" source="kAmNbd_d05ljZrrda5HX-16" target="QD1m-1uply2OvwpmF5vF-21" edge="1">
          <mxGeometry width="50" height="50" relative="1" as="geometry">
            <mxPoint x="430" y="560" as="sourcePoint" />
            <mxPoint x="480" y="510" as="targetPoint" />
          </mxGeometry>
        </mxCell>
        <mxCell id="QD1m-1uply2OvwpmF5vF-155" value="" style="endArrow=none;html=1;rounded=0;entryX=0;entryY=0.75;entryDx=0;entryDy=0;exitX=1;exitY=0;exitDx=0;exitDy=0;" parent="1" source="QD1m-1uply2OvwpmF5vF-151" target="kAmNbd_d05ljZrrda5HX-1" edge="1">
          <mxGeometry relative="1" as="geometry">
            <mxPoint x="-320" y="524.5" as="sourcePoint" />
            <mxPoint x="-160" y="524.5" as="targetPoint" />
          </mxGeometry>
        </mxCell>
        <mxCell id="QD1m-1uply2OvwpmF5vF-156" value="" style="endArrow=none;html=1;rounded=0;entryX=0;entryY=1;entryDx=0;entryDy=0;exitX=1;exitY=0.25;exitDx=0;exitDy=0;" parent="1" source="kAmNbd_d05ljZrrda5HX-28" target="QD1m-1uply2OvwpmF5vF-151" edge="1">
          <mxGeometry relative="1" as="geometry">
            <mxPoint x="-1040" y="895" as="sourcePoint" />
            <mxPoint x="-880" y="750" as="targetPoint" />
          </mxGeometry>
        </mxCell>
        <mxCell id="QD1m-1uply2OvwpmF5vF-157" value="" style="endArrow=none;html=1;rounded=0;exitX=0.5;exitY=1;exitDx=0;exitDy=0;entryX=0.5;entryY=0;entryDx=0;entryDy=0;" parent="1" source="kAmNbd_d05ljZrrda5HX-3" target="QD1m-1uply2OvwpmF5vF-40" edge="1">
          <mxGeometry relative="1" as="geometry">
            <mxPoint x="172.5" y="-46" as="sourcePoint" />
            <mxPoint x="320" y="-276" as="targetPoint" />
          </mxGeometry>
        </mxCell>
        <mxCell id="QD1m-1uply2OvwpmF5vF-195" value="Serve" style="rhombus;whiteSpace=wrap;html=1;" parent="1" vertex="1">
          <mxGeometry x="800" y="370" width="170" height="80" as="geometry" />
        </mxCell>
        <mxCell id="QD1m-1uply2OvwpmF5vF-196" value="" style="endArrow=none;html=1;rounded=0;entryX=0;entryY=0.5;entryDx=0;entryDy=0;exitX=1;exitY=0.5;exitDx=0;exitDy=0;" parent="1" source="kAmNbd_d05ljZrrda5HX-17" target="QD1m-1uply2OvwpmF5vF-195" edge="1">
          <mxGeometry width="50" height="50" relative="1" as="geometry">
            <mxPoint x="630" y="510" as="sourcePoint" />
            <mxPoint x="680" y="460" as="targetPoint" />
          </mxGeometry>
        </mxCell>
        <mxCell id="QD1m-1uply2OvwpmF5vF-197" value="" style="endArrow=none;html=1;rounded=0;exitX=1;exitY=0.5;exitDx=0;exitDy=0;entryX=0;entryY=0.5;entryDx=0;entryDy=0;" parent="1" source="QD1m-1uply2OvwpmF5vF-195" target="kAmNbd_d05ljZrrda5HX-22" edge="1">
          <mxGeometry width="50" height="50" relative="1" as="geometry">
            <mxPoint x="890" y="310" as="sourcePoint" />
            <mxPoint x="940" y="260" as="targetPoint" />
          </mxGeometry>
        </mxCell>
        <mxCell id="QD1m-1uply2OvwpmF5vF-198" value="1" style="text;html=1;align=center;verticalAlign=middle;whiteSpace=wrap;rounded=0;" parent="1" vertex="1">
          <mxGeometry x="637.5" y="380" width="60" height="30" as="geometry" />
        </mxCell>
        <mxCell id="QD1m-1uply2OvwpmF5vF-200" value="(1,M)" style="text;html=1;align=center;verticalAlign=middle;whiteSpace=wrap;rounded=0;" parent="1" vertex="1">
          <mxGeometry x="637.5" y="410" width="60" height="30" as="geometry" />
        </mxCell>
        <mxCell id="QD1m-1uply2OvwpmF5vF-201" value="M" style="text;html=1;align=center;verticalAlign=middle;whiteSpace=wrap;rounded=0;" parent="1" vertex="1">
          <mxGeometry x="1190" y="380" width="60" height="30" as="geometry" />
        </mxCell>
        <mxCell id="QD1m-1uply2OvwpmF5vF-205" value="Serve" style="rhombus;whiteSpace=wrap;html=1;" parent="1" vertex="1">
          <mxGeometry x="537.5" y="695" width="80" height="175" as="geometry" />
        </mxCell>
        <mxCell id="QD1m-1uply2OvwpmF5vF-206" value="" style="endArrow=none;html=1;rounded=0;exitX=0.5;exitY=1;exitDx=0;exitDy=0;entryX=0.5;entryY=0;entryDx=0;entryDy=0;" parent="1" source="kAmNbd_d05ljZrrda5HX-17" target="QD1m-1uply2OvwpmF5vF-205" edge="1">
          <mxGeometry relative="1" as="geometry">
            <mxPoint x="680" y="560" as="sourcePoint" />
            <mxPoint x="840" y="560" as="targetPoint" />
          </mxGeometry>
        </mxCell>
        <mxCell id="QD1m-1uply2OvwpmF5vF-207" value="" style="endArrow=none;html=1;rounded=0;exitX=0.5;exitY=1;exitDx=0;exitDy=0;entryX=0.5;entryY=0;entryDx=0;entryDy=0;" parent="1" source="QD1m-1uply2OvwpmF5vF-205" target="kAmNbd_d05ljZrrda5HX-21" edge="1">
          <mxGeometry relative="1" as="geometry">
            <mxPoint x="720" y="620" as="sourcePoint" />
            <mxPoint x="880" y="620" as="targetPoint" />
          </mxGeometry>
        </mxCell>
        <mxCell id="DCmgsxbjKsTqkuRd_Q3x-4" value="" style="endArrow=none;html=1;rounded=0;entryX=0.75;entryY=1;entryDx=0;entryDy=0;exitX=1;exitY=0;exitDx=0;exitDy=0;" parent="1" source="DCmgsxbjKsTqkuRd_Q3x-5" target="kAmNbd_d05ljZrrda5HX-22" edge="1">
          <mxGeometry relative="1" as="geometry">
            <mxPoint x="1020" y="510" as="sourcePoint" />
            <mxPoint x="1180" y="510" as="targetPoint" />
          </mxGeometry>
        </mxCell>
        <mxCell id="DCmgsxbjKsTqkuRd_Q3x-5" value="Serve" style="rhombus;whiteSpace=wrap;html=1;" parent="1" vertex="1">
          <mxGeometry x="1190" y="530" width="80" height="80" as="geometry" />
        </mxCell>
        <mxCell id="DCmgsxbjKsTqkuRd_Q3x-6" value="Serve" style="rhombus;whiteSpace=wrap;html=1;" parent="1" vertex="1">
          <mxGeometry x="810" y="810" width="80" height="80" as="geometry" />
        </mxCell>
        <mxCell id="DCmgsxbjKsTqkuRd_Q3x-7" value="" style="endArrow=none;html=1;rounded=0;entryX=0;entryY=1;entryDx=0;entryDy=0;exitX=1;exitY=0;exitDx=0;exitDy=0;" parent="1" source="kAmNbd_d05ljZrrda5HX-11" target="DCmgsxbjKsTqkuRd_Q3x-5" edge="1">
          <mxGeometry width="50" height="50" relative="1" as="geometry">
            <mxPoint x="940" y="720" as="sourcePoint" />
            <mxPoint x="990" y="670" as="targetPoint" />
          </mxGeometry>
        </mxCell>
        <mxCell id="DCmgsxbjKsTqkuRd_Q3x-10" value="" style="endArrow=none;html=1;rounded=0;entryX=0;entryY=1;entryDx=0;entryDy=0;exitX=1;exitY=0;exitDx=0;exitDy=0;" parent="1" source="DCmgsxbjKsTqkuRd_Q3x-6" target="kAmNbd_d05ljZrrda5HX-11" edge="1">
          <mxGeometry width="50" height="50" relative="1" as="geometry">
            <mxPoint x="860" y="750" as="sourcePoint" />
            <mxPoint x="910" y="700" as="targetPoint" />
          </mxGeometry>
        </mxCell>
        <mxCell id="DCmgsxbjKsTqkuRd_Q3x-11" value="" style="endArrow=none;html=1;rounded=0;entryX=0;entryY=1;entryDx=0;entryDy=0;exitX=1;exitY=0.5;exitDx=0;exitDy=0;" parent="1" source="kAmNbd_d05ljZrrda5HX-21" target="DCmgsxbjKsTqkuRd_Q3x-6" edge="1">
          <mxGeometry width="50" height="50" relative="1" as="geometry">
            <mxPoint x="570" y="900" as="sourcePoint" />
            <mxPoint x="620" y="850" as="targetPoint" />
          </mxGeometry>
        </mxCell>
        <mxCell id="DCmgsxbjKsTqkuRd_Q3x-12" value="" style="endArrow=none;html=1;rounded=0;entryX=0;entryY=1;entryDx=0;entryDy=0;exitX=0.75;exitY=0;exitDx=0;exitDy=0;" parent="1" source="QD1m-1uply2OvwpmF5vF-21" target="kAmNbd_d05ljZrrda5HX-20" edge="1">
          <mxGeometry width="50" height="50" relative="1" as="geometry">
            <mxPoint x="407.5" y="380" as="sourcePoint" />
            <mxPoint x="520" y="260" as="targetPoint" />
          </mxGeometry>
        </mxCell>
        <mxCell id="DCmgsxbjKsTqkuRd_Q3x-14" value="" style="endArrow=none;html=1;rounded=0;entryX=0;entryY=0.25;entryDx=0;entryDy=0;exitX=0.75;exitY=1;exitDx=0;exitDy=0;" parent="1" source="kAmNbd_d05ljZrrda5HX-26" target="QD1m-1uply2OvwpmF5vF-21" edge="1">
          <mxGeometry width="50" height="50" relative="1" as="geometry">
            <mxPoint x="90" y="70" as="sourcePoint" />
            <mxPoint x="267.5" y="380" as="targetPoint" />
          </mxGeometry>
        </mxCell>
        <mxCell id="DCmgsxbjKsTqkuRd_Q3x-15" value="" style="endArrow=none;html=1;rounded=0;entryX=0;entryY=1;entryDx=0;entryDy=0;exitX=1;exitY=0.25;exitDx=0;exitDy=0;" parent="1" source="kAmNbd_d05ljZrrda5HX-26" target="QD1m-1uply2OvwpmF5vF-40" edge="1">
          <mxGeometry width="50" height="50" relative="1" as="geometry">
            <mxPoint x="200" y="-20" as="sourcePoint" />
            <mxPoint x="247.5" y="-223.5" as="targetPoint" />
          </mxGeometry>
        </mxCell>
        <mxCell id="DCmgsxbjKsTqkuRd_Q3x-16" value="Have" style="rhombus;whiteSpace=wrap;html=1;" parent="1" vertex="1">
          <mxGeometry x="-80" y="1025.5" width="80" height="80" as="geometry" />
        </mxCell>
        <mxCell id="DCmgsxbjKsTqkuRd_Q3x-17" value="Participate" style="rhombus;whiteSpace=wrap;html=1;" parent="1" vertex="1">
          <mxGeometry x="507.5" y="1370" width="145" height="60" as="geometry" />
        </mxCell>
        <mxCell id="DCmgsxbjKsTqkuRd_Q3x-18" value="" style="endArrow=none;html=1;rounded=0;entryX=0;entryY=0.5;entryDx=0;entryDy=0;exitX=1;exitY=0.5;exitDx=0;exitDy=0;" parent="1" source="DCmgsxbjKsTqkuRd_Q3x-16" target="kAmNbd_d05ljZrrda5HX-21" edge="1">
          <mxGeometry width="50" height="50" relative="1" as="geometry">
            <mxPoint x="190" y="1010" as="sourcePoint" />
            <mxPoint x="240" y="960" as="targetPoint" />
          </mxGeometry>
        </mxCell>
        <mxCell id="DCmgsxbjKsTqkuRd_Q3x-19" value="" style="endArrow=none;html=1;rounded=0;entryX=0.5;entryY=1;entryDx=0;entryDy=0;exitX=0.5;exitY=0;exitDx=0;exitDy=0;" parent="1" source="kAmNbd_d05ljZrrda5HX-8" target="DCmgsxbjKsTqkuRd_Q3x-16" edge="1">
          <mxGeometry width="50" height="50" relative="1" as="geometry">
            <mxPoint x="80" y="980" as="sourcePoint" />
            <mxPoint x="130" y="930" as="targetPoint" />
          </mxGeometry>
        </mxCell>
        <mxCell id="DCmgsxbjKsTqkuRd_Q3x-20" value="" style="endArrow=none;html=1;rounded=0;entryX=0.5;entryY=1;entryDx=0;entryDy=0;exitX=0.5;exitY=0;exitDx=0;exitDy=0;" parent="1" source="DCmgsxbjKsTqkuRd_Q3x-17" target="kAmNbd_d05ljZrrda5HX-21" edge="1">
          <mxGeometry width="50" height="50" relative="1" as="geometry">
            <mxPoint x="840" y="1180" as="sourcePoint" />
            <mxPoint x="890" y="1130" as="targetPoint" />
          </mxGeometry>
        </mxCell>
        <mxCell id="DCmgsxbjKsTqkuRd_Q3x-21" value="" style="endArrow=none;html=1;rounded=0;entryX=0.5;entryY=1;entryDx=0;entryDy=0;exitX=0.5;exitY=0;exitDx=0;exitDy=0;" parent="1" source="QD1m-1uply2OvwpmF5vF-46" target="DCmgsxbjKsTqkuRd_Q3x-17" edge="1">
          <mxGeometry width="50" height="50" relative="1" as="geometry">
            <mxPoint x="720" y="1350" as="sourcePoint" />
            <mxPoint x="770" y="1300" as="targetPoint" />
          </mxGeometry>
        </mxCell>
        <mxCell id="DCmgsxbjKsTqkuRd_Q3x-34" value="(1,1)" style="text;html=1;align=center;verticalAlign=middle;whiteSpace=wrap;rounded=0;" parent="1" vertex="1">
          <mxGeometry x="1190" y="410" width="60" height="30" as="geometry" />
        </mxCell>
        <mxCell id="DCmgsxbjKsTqkuRd_Q3x-37" value="d" style="ellipse;whiteSpace=wrap;html=1;aspect=fixed;" parent="1" vertex="1">
          <mxGeometry x="1052.5" y="730" width="35" height="35" as="geometry" />
        </mxCell>
        <mxCell id="DCmgsxbjKsTqkuRd_Q3x-41" value="Coach" style="rounded=0;whiteSpace=wrap;html=1;" parent="1" vertex="1">
          <mxGeometry x="1130" y="970" width="120" height="60" as="geometry" />
        </mxCell>
        <mxCell id="DCmgsxbjKsTqkuRd_Q3x-42" value="TailoredTaxi" style="rounded=0;whiteSpace=wrap;html=1;" parent="1" vertex="1">
          <mxGeometry x="950" y="970" width="120" height="60" as="geometry" />
        </mxCell>
        <mxCell id="DCmgsxbjKsTqkuRd_Q3x-43" value="" style="endArrow=none;html=1;rounded=0;entryX=0.5;entryY=1;entryDx=0;entryDy=0;exitX=0.5;exitY=0;exitDx=0;exitDy=0;" parent="1" source="DCmgsxbjKsTqkuRd_Q3x-41" target="DCmgsxbjKsTqkuRd_Q3x-37" edge="1">
          <mxGeometry width="50" height="50" relative="1" as="geometry">
            <mxPoint x="1190" y="880" as="sourcePoint" />
            <mxPoint x="1240" y="830" as="targetPoint" />
          </mxGeometry>
        </mxCell>
        <mxCell id="DCmgsxbjKsTqkuRd_Q3x-44" value="" style="endArrow=none;html=1;rounded=0;entryX=0.5;entryY=1;entryDx=0;entryDy=0;exitX=0.5;exitY=0;exitDx=0;exitDy=0;" parent="1" source="DCmgsxbjKsTqkuRd_Q3x-42" target="DCmgsxbjKsTqkuRd_Q3x-37" edge="1">
          <mxGeometry width="50" height="50" relative="1" as="geometry">
            <mxPoint x="1290" y="790" as="sourcePoint" />
            <mxPoint x="1340" y="740" as="targetPoint" />
          </mxGeometry>
        </mxCell>
        <mxCell id="DCmgsxbjKsTqkuRd_Q3x-50" value="" style="endArrow=none;html=1;rounded=0;entryX=1;entryY=1;entryDx=0;entryDy=0;exitX=0;exitY=0.25;exitDx=0;exitDy=0;" parent="1" source="kAmNbd_d05ljZrrda5HX-10" target="QD1m-1uply2OvwpmF5vF-115" edge="1">
          <mxGeometry width="50" height="50" relative="1" as="geometry">
            <mxPoint x="40" y="700" as="sourcePoint" />
            <mxPoint x="90" y="650" as="targetPoint" />
          </mxGeometry>
        </mxCell>
        <mxCell id="DCmgsxbjKsTqkuRd_Q3x-51" value="&lt;u&gt;VolunteerID&lt;/u&gt;" style="ellipse;whiteSpace=wrap;html=1;" parent="1" vertex="1">
          <mxGeometry x="-302.5" y="50" width="120" height="42.5" as="geometry" />
        </mxCell>
        <mxCell id="DCmgsxbjKsTqkuRd_Q3x-54" value="FirstName" style="ellipse;whiteSpace=wrap;html=1;" parent="1" vertex="1">
          <mxGeometry x="-288" y="105" width="100" height="40" as="geometry" />
        </mxCell>
        <mxCell id="DCmgsxbjKsTqkuRd_Q3x-55" value="LastName" style="ellipse;whiteSpace=wrap;html=1;" parent="1" vertex="1">
          <mxGeometry x="-288" y="155" width="94.38" height="35" as="geometry" />
        </mxCell>
        <mxCell id="DCmgsxbjKsTqkuRd_Q3x-56" value="Nationality" style="ellipse;whiteSpace=wrap;html=1;" parent="1" vertex="1">
          <mxGeometry x="-297.5" y="200" width="110" height="37" as="geometry" />
        </mxCell>
        <mxCell id="DCmgsxbjKsTqkuRd_Q3x-57" value="PhoneNumber" style="ellipse;whiteSpace=wrap;html=1;" parent="1" vertex="1">
          <mxGeometry x="-309.56" y="244.5" width="137.5" height="40" as="geometry" />
        </mxCell>
        <mxCell id="DCmgsxbjKsTqkuRd_Q3x-58" value="Email" style="ellipse;whiteSpace=wrap;html=1;" parent="1" vertex="1">
          <mxGeometry x="-297.5" y="292.25" width="110" height="30" as="geometry" />
        </mxCell>
        <mxCell id="DCmgsxbjKsTqkuRd_Q3x-60" value="&lt;u&gt;LanguageID&lt;/u&gt;" style="ellipse;whiteSpace=wrap;html=1;" parent="1" vertex="1">
          <mxGeometry x="-1075" y="-35" width="140" height="50" as="geometry" />
        </mxCell>
        <mxCell id="DCmgsxbjKsTqkuRd_Q3x-61" value="LanguageName" style="ellipse;whiteSpace=wrap;html=1;" parent="1" vertex="1">
          <mxGeometry x="-1085" y="60" width="180" height="40" as="geometry" />
        </mxCell>
        <mxCell id="DCmgsxbjKsTqkuRd_Q3x-62" value="VolunteerID" style="ellipse;whiteSpace=wrap;html=1;" parent="1" vertex="1">
          <mxGeometry x="-1100" y="235" width="210" height="45" as="geometry" />
        </mxCell>
        <mxCell id="DCmgsxbjKsTqkuRd_Q3x-63" value="" style="endArrow=none;dashed=1;html=1;rounded=0;" parent="1" edge="1">
          <mxGeometry width="50" height="50" relative="1" as="geometry">
            <mxPoint x="-1050" y="265" as="sourcePoint" />
            <mxPoint x="-940" y="265" as="targetPoint" />
          </mxGeometry>
        </mxCell>
        <mxCell id="DCmgsxbjKsTqkuRd_Q3x-64" value="&lt;u&gt;EmergencyContactID&lt;/u&gt;" style="ellipse;whiteSpace=wrap;html=1;" parent="1" vertex="1">
          <mxGeometry x="-1330" y="320" width="230" height="40" as="geometry" />
        </mxCell>
        <mxCell id="DCmgsxbjKsTqkuRd_Q3x-65" value="EmergencyContackName" style="ellipse;whiteSpace=wrap;html=1;" parent="1" vertex="1">
          <mxGeometry x="-1330" y="390" width="230" height="40" as="geometry" />
        </mxCell>
        <mxCell id="DCmgsxbjKsTqkuRd_Q3x-66" value="ProficiencyLevel" style="ellipse;whiteSpace=wrap;html=1;" parent="1" vertex="1">
          <mxGeometry x="-1085" y="135.5" width="170" height="50" as="geometry" />
        </mxCell>
        <mxCell id="DCmgsxbjKsTqkuRd_Q3x-70" value="VolunteerID" style="ellipse;whiteSpace=wrap;html=1;" parent="1" vertex="1">
          <mxGeometry x="-1310" y="540" width="170" height="40" as="geometry" />
        </mxCell>
        <mxCell id="DCmgsxbjKsTqkuRd_Q3x-71" value="" style="endArrow=none;dashed=1;html=1;rounded=0;" parent="1" edge="1">
          <mxGeometry width="50" height="50" relative="1" as="geometry">
            <mxPoint x="-1280" y="570" as="sourcePoint" />
            <mxPoint x="-1170" y="570" as="targetPoint" />
          </mxGeometry>
        </mxCell>
        <mxCell id="DCmgsxbjKsTqkuRd_Q3x-72" value="EmergencyContactPhoneNumber" style="ellipse;whiteSpace=wrap;html=1;" parent="1" vertex="1">
          <mxGeometry x="-1410" y="460" width="335" height="40" as="geometry" />
        </mxCell>
        <mxCell id="DCmgsxbjKsTqkuRd_Q3x-73" value="&lt;u&gt;FeedbackID&lt;/u&gt;" style="ellipse;whiteSpace=wrap;html=1;" parent="1" vertex="1">
          <mxGeometry x="-1190" y="810" width="130" height="40" as="geometry" />
        </mxCell>
        <mxCell id="DCmgsxbjKsTqkuRd_Q3x-75" value="" style="endArrow=none;dashed=1;html=1;rounded=0;" parent="1" source="DCmgsxbjKsTqkuRd_Q3x-74" edge="1">
          <mxGeometry width="50" height="50" relative="1" as="geometry">
            <mxPoint x="-682.5" y="807.5" as="sourcePoint" />
            <mxPoint x="-572.5" y="807.5" as="targetPoint" />
          </mxGeometry>
        </mxCell>
        <mxCell id="DCmgsxbjKsTqkuRd_Q3x-77" value="Date" style="ellipse;whiteSpace=wrap;html=1;" parent="1" vertex="1">
          <mxGeometry x="-1030" y="802.5" width="140" height="50" as="geometry" />
        </mxCell>
        <mxCell id="DCmgsxbjKsTqkuRd_Q3x-78" value="Rating" style="ellipse;whiteSpace=wrap;html=1;" parent="1" vertex="1">
          <mxGeometry x="-860" y="797.5" width="130" height="60" as="geometry" />
        </mxCell>
        <mxCell id="DCmgsxbjKsTqkuRd_Q3x-79" value="&lt;u&gt;SupervisorID&lt;/u&gt;" style="ellipse;whiteSpace=wrap;html=1;" parent="1" vertex="1">
          <mxGeometry x="-393" y="614" width="170" height="46" as="geometry" />
        </mxCell>
        <mxCell id="DCmgsxbjKsTqkuRd_Q3x-80" value="SupervisorName" style="ellipse;whiteSpace=wrap;html=1;" parent="1" vertex="1">
          <mxGeometry x="-413" y="704" width="190" height="46" as="geometry" />
        </mxCell>
        <mxCell id="DCmgsxbjKsTqkuRd_Q3x-81" value="SupervisorPhonenumber" style="ellipse;whiteSpace=wrap;html=1;" parent="1" vertex="1">
          <mxGeometry x="-423" y="775" width="200" height="45.5" as="geometry" />
        </mxCell>
        <mxCell id="DCmgsxbjKsTqkuRd_Q3x-82" value="VolunteerID" style="ellipse;whiteSpace=wrap;html=1;" parent="1" vertex="1">
          <mxGeometry x="140" y="202.25" width="102" height="35.5" as="geometry" />
        </mxCell>
        <mxCell id="DCmgsxbjKsTqkuRd_Q3x-83" value="" style="endArrow=none;dashed=1;html=1;rounded=0;" parent="1" edge="1">
          <mxGeometry width="50" height="50" relative="1" as="geometry">
            <mxPoint x="158" y="228" as="sourcePoint" />
            <mxPoint x="225" y="228.41999999999993" as="targetPoint" />
          </mxGeometry>
        </mxCell>
        <mxCell id="DCmgsxbjKsTqkuRd_Q3x-85" value="&lt;u&gt;TaskID&lt;/u&gt;" style="ellipse;whiteSpace=wrap;html=1;" parent="1" vertex="1">
          <mxGeometry x="-418" y="-155" width="130" height="40" as="geometry" />
        </mxCell>
        <mxCell id="DCmgsxbjKsTqkuRd_Q3x-86" value="Description" style="ellipse;whiteSpace=wrap;html=1;" parent="1" vertex="1">
          <mxGeometry x="-438" y="-93" width="160" height="50" as="geometry" />
        </mxCell>
        <mxCell id="DCmgsxbjKsTqkuRd_Q3x-87" value="VolunteerID" style="ellipse;whiteSpace=wrap;html=1;" parent="1" vertex="1">
          <mxGeometry x="-430" width="155" height="50" as="geometry" />
        </mxCell>
        <mxCell id="DCmgsxbjKsTqkuRd_Q3x-88" value="" style="endArrow=none;dashed=1;html=1;rounded=0;" parent="1" edge="1">
          <mxGeometry width="50" height="50" relative="1" as="geometry">
            <mxPoint x="-407.5" y="34" as="sourcePoint" />
            <mxPoint x="-297.5" y="34" as="targetPoint" />
          </mxGeometry>
        </mxCell>
        <mxCell id="DCmgsxbjKsTqkuRd_Q3x-89" value="TaskName" style="ellipse;whiteSpace=wrap;html=1;" parent="1" vertex="1">
          <mxGeometry x="-413" y="-231" width="135" height="44" as="geometry" />
        </mxCell>
        <mxCell id="DCmgsxbjKsTqkuRd_Q3x-90" value="&lt;u&gt;EquipmentID&lt;/u&gt;" style="ellipse;whiteSpace=wrap;html=1;" parent="1" vertex="1">
          <mxGeometry x="-212.5" y="-476" width="146" height="40" as="geometry" />
        </mxCell>
        <mxCell id="DCmgsxbjKsTqkuRd_Q3x-91" value="EquipmentName" style="ellipse;whiteSpace=wrap;html=1;" parent="1" vertex="1">
          <mxGeometry x="-215" y="-416" width="165" height="40" as="geometry" />
        </mxCell>
        <mxCell id="DCmgsxbjKsTqkuRd_Q3x-92" value="TaskID" style="ellipse;whiteSpace=wrap;html=1;" parent="1" vertex="1">
          <mxGeometry x="-217.5" y="-360" width="160" height="34" as="geometry" />
        </mxCell>
        <mxCell id="DCmgsxbjKsTqkuRd_Q3x-94" value="" style="endArrow=none;dashed=1;html=1;rounded=0;" parent="1" edge="1">
          <mxGeometry width="50" height="50" relative="1" as="geometry">
            <mxPoint x="-165" y="-334.19" as="sourcePoint" />
            <mxPoint x="-105" y="-334.69" as="targetPoint" />
          </mxGeometry>
        </mxCell>
        <mxCell id="DCmgsxbjKsTqkuRd_Q3x-95" value="DescriptionsOfUse" style="ellipse;whiteSpace=wrap;html=1;" parent="1" vertex="1">
          <mxGeometry x="-220" y="-310" width="180" height="34" as="geometry" />
        </mxCell>
        <mxCell id="DCmgsxbjKsTqkuRd_Q3x-96" value="&lt;u&gt;EventID&lt;/u&gt;" style="ellipse;whiteSpace=wrap;html=1;" parent="1" vertex="1">
          <mxGeometry x="148.5" y="-155" width="104" height="30" as="geometry" />
        </mxCell>
        <mxCell id="DCmgsxbjKsTqkuRd_Q3x-97" value="EventType" style="ellipse;whiteSpace=wrap;html=1;" parent="1" vertex="1">
          <mxGeometry x="125" y="-115" width="120" height="30" as="geometry" />
        </mxCell>
        <mxCell id="DCmgsxbjKsTqkuRd_Q3x-98" value="EquipmentID" style="ellipse;whiteSpace=wrap;html=1;" parent="1" vertex="1">
          <mxGeometry x="121" y="-30" width="140" height="40" as="geometry" />
        </mxCell>
        <mxCell id="DCmgsxbjKsTqkuRd_Q3x-99" value="" style="endArrow=none;dashed=1;html=1;rounded=0;" parent="1" edge="1">
          <mxGeometry width="50" height="50" relative="1" as="geometry">
            <mxPoint x="143.5" y="-3.5900000000000034" as="sourcePoint" />
            <mxPoint x="243.5" y="-3.5900000000000034" as="targetPoint" />
          </mxGeometry>
        </mxCell>
        <mxCell id="DCmgsxbjKsTqkuRd_Q3x-100" value="EventDescription" style="ellipse;whiteSpace=wrap;html=1;" parent="1" vertex="1">
          <mxGeometry x="110" y="-78" width="150" height="35" as="geometry" />
        </mxCell>
        <mxCell id="DCmgsxbjKsTqkuRd_Q3x-101" value="&lt;u&gt;TechnicalSupportID&lt;/u&gt;" style="ellipse;whiteSpace=wrap;html=1;" parent="1" vertex="1">
          <mxGeometry x="80" y="-560" width="210" height="46" as="geometry" />
        </mxCell>
        <mxCell id="DCmgsxbjKsTqkuRd_Q3x-102" value="Profession" style="ellipse;whiteSpace=wrap;html=1;" parent="1" vertex="1">
          <mxGeometry x="414" y="-557" width="130" height="40" as="geometry" />
        </mxCell>
        <mxCell id="DCmgsxbjKsTqkuRd_Q3x-103" value="EventID" style="ellipse;whiteSpace=wrap;html=1;" parent="1" vertex="1">
          <mxGeometry x="115" y="-476" width="140" height="34" as="geometry" />
        </mxCell>
        <mxCell id="DCmgsxbjKsTqkuRd_Q3x-104" value="" style="endArrow=none;dashed=1;html=1;rounded=0;" parent="1" edge="1">
          <mxGeometry width="50" height="50" relative="1" as="geometry">
            <mxPoint x="152.5" y="-450" as="sourcePoint" />
            <mxPoint x="217.5" y="-450" as="targetPoint" />
          </mxGeometry>
        </mxCell>
        <mxCell id="DCmgsxbjKsTqkuRd_Q3x-105" value="TechnicalSupportPhoneNumber" style="ellipse;whiteSpace=wrap;html=1;" parent="1" vertex="1">
          <mxGeometry x="377.5" y="-480" width="310" height="40" as="geometry" />
        </mxCell>
        <mxCell id="DCmgsxbjKsTqkuRd_Q3x-106" value="&lt;u&gt;LocationID&lt;/u&gt;" style="ellipse;whiteSpace=wrap;html=1;" parent="1" vertex="1">
          <mxGeometry x="1017" y="-416" width="130" height="30" as="geometry" />
        </mxCell>
        <mxCell id="DCmgsxbjKsTqkuRd_Q3x-107" value="LocationName" style="ellipse;whiteSpace=wrap;html=1;" parent="1" vertex="1">
          <mxGeometry x="1012" y="-345" width="128" height="35" as="geometry" />
        </mxCell>
        <mxCell id="DCmgsxbjKsTqkuRd_Q3x-108" value="Capacity" style="ellipse;whiteSpace=wrap;html=1;" parent="1" vertex="1">
          <mxGeometry x="1012" y="-276" width="110" height="30" as="geometry" />
        </mxCell>
        <mxCell id="DCmgsxbjKsTqkuRd_Q3x-109" value="EventID" style="ellipse;whiteSpace=wrap;html=1;" parent="1" vertex="1">
          <mxGeometry x="1012" y="-210" width="140" height="34" as="geometry" />
        </mxCell>
        <mxCell id="DCmgsxbjKsTqkuRd_Q3x-110" value="" style="endArrow=none;dashed=1;html=1;rounded=0;" parent="1" edge="1">
          <mxGeometry width="50" height="50" relative="1" as="geometry">
            <mxPoint x="1049" y="-184" as="sourcePoint" />
            <mxPoint x="1114" y="-184" as="targetPoint" />
          </mxGeometry>
        </mxCell>
        <mxCell id="DCmgsxbjKsTqkuRd_Q3x-111" value="&lt;u&gt;AttendanceID&lt;/u&gt;" style="ellipse;whiteSpace=wrap;html=1;" parent="1" vertex="1">
          <mxGeometry x="50" y="45" width="150" height="40" as="geometry" />
        </mxCell>
        <mxCell id="DCmgsxbjKsTqkuRd_Q3x-112" value="StartDate" style="ellipse;whiteSpace=wrap;html=1;" parent="1" vertex="1">
          <mxGeometry x="82" y="100" width="108" height="40" as="geometry" />
        </mxCell>
        <mxCell id="DCmgsxbjKsTqkuRd_Q3x-113" value="EndDate" style="ellipse;whiteSpace=wrap;html=1;" parent="1" vertex="1">
          <mxGeometry x="105.75" y="145" width="118" height="40" as="geometry" />
        </mxCell>
        <mxCell id="DCmgsxbjKsTqkuRd_Q3x-116" value="&lt;u&gt;CustomerServiceID&lt;/u&gt;" style="ellipse;whiteSpace=wrap;html=1;" parent="1" vertex="1">
          <mxGeometry x="490" y="-50" width="188" height="40" as="geometry" />
        </mxCell>
        <mxCell id="DCmgsxbjKsTqkuRd_Q3x-117" value="Type" style="ellipse;whiteSpace=wrap;html=1;" parent="1" vertex="1">
          <mxGeometry x="841" y="-50" width="140" height="40" as="geometry" />
        </mxCell>
        <mxCell id="DCmgsxbjKsTqkuRd_Q3x-118" value="AttendanceID" style="ellipse;whiteSpace=wrap;html=1;" parent="1" vertex="1">
          <mxGeometry x="370" y="673.5" width="154" height="33" as="geometry" />
        </mxCell>
        <mxCell id="DCmgsxbjKsTqkuRd_Q3x-120" value="" style="endArrow=none;dashed=1;html=1;rounded=0;" parent="1" edge="1">
          <mxGeometry width="50" height="50" relative="1" as="geometry">
            <mxPoint x="396" y="697.5" as="sourcePoint" />
            <mxPoint x="496" y="697.5" as="targetPoint" />
          </mxGeometry>
        </mxCell>
        <mxCell id="DCmgsxbjKsTqkuRd_Q3x-121" value="CustomerServicePhoneNumber" style="ellipse;whiteSpace=wrap;html=1;" parent="1" vertex="1">
          <mxGeometry x="831.5" y="-117.75" width="327.5" height="35.5" as="geometry" />
        </mxCell>
        <mxCell id="DCmgsxbjKsTqkuRd_Q3x-122" value="&lt;u&gt;ReceptionID&lt;/u&gt;" style="ellipse;whiteSpace=wrap;html=1;" parent="1" vertex="1">
          <mxGeometry x="697.5" y="170" width="117.5" height="32.25" as="geometry" />
        </mxCell>
        <mxCell id="DCmgsxbjKsTqkuRd_Q3x-123" value="ReceptionStatus" style="ellipse;whiteSpace=wrap;html=1;" parent="1" vertex="1">
          <mxGeometry x="687.5" y="280" width="158" height="40" as="geometry" />
        </mxCell>
        <mxCell id="DCmgsxbjKsTqkuRd_Q3x-124" value="ReceptionDate" style="ellipse;whiteSpace=wrap;html=1;" parent="1" vertex="1">
          <mxGeometry x="687.5" y="220" width="154.5" height="40" as="geometry" />
        </mxCell>
        <mxCell id="DCmgsxbjKsTqkuRd_Q3x-126" value="VolunteerID" style="ellipse;whiteSpace=wrap;html=1;" parent="1" vertex="1">
          <mxGeometry x="10" y="900" width="190" height="40" as="geometry" />
        </mxCell>
        <mxCell id="DCmgsxbjKsTqkuRd_Q3x-127" value="" style="endArrow=none;dashed=1;html=1;rounded=0;" parent="1" edge="1">
          <mxGeometry width="50" height="50" relative="1" as="geometry">
            <mxPoint x="55" y="930.0000000000001" as="sourcePoint" />
            <mxPoint x="165" y="930.22" as="targetPoint" />
          </mxGeometry>
        </mxCell>
        <mxCell id="DCmgsxbjKsTqkuRd_Q3x-128" value="&lt;u&gt;UniformID&lt;/u&gt;" style="ellipse;whiteSpace=wrap;html=1;" parent="1" vertex="1">
          <mxGeometry x="60" y="809.5" width="130" height="46" as="geometry" />
        </mxCell>
        <mxCell id="DCmgsxbjKsTqkuRd_Q3x-129" value="UniformType" style="ellipse;whiteSpace=wrap;html=1;" parent="1" vertex="1">
          <mxGeometry x="286" y="809.5" width="145" height="46" as="geometry" />
        </mxCell>
        <mxCell id="DCmgsxbjKsTqkuRd_Q3x-132" value="IssuedDate" style="ellipse;whiteSpace=wrap;html=1;" parent="1" vertex="1">
          <mxGeometry x="286" y="897" width="128" height="46" as="geometry" />
        </mxCell>
        <mxCell id="DCmgsxbjKsTqkuRd_Q3x-133" value="&lt;u&gt;TrainingID&lt;/u&gt;" style="ellipse;whiteSpace=wrap;html=1;" parent="1" vertex="1">
          <mxGeometry x="180" y="620" width="125" height="40" as="geometry" />
        </mxCell>
        <mxCell id="DCmgsxbjKsTqkuRd_Q3x-134" value="TrainingType" style="ellipse;whiteSpace=wrap;html=1;" parent="1" vertex="1">
          <mxGeometry x="374" y="620" width="139" height="40" as="geometry" />
        </mxCell>
        <mxCell id="DCmgsxbjKsTqkuRd_Q3x-135" value="TrainingDate" style="ellipse;whiteSpace=wrap;html=1;" parent="1" vertex="1">
          <mxGeometry x="165" y="672.5" width="150" height="35" as="geometry" />
        </mxCell>
        <mxCell id="DCmgsxbjKsTqkuRd_Q3x-136" value="VolunteerID" style="ellipse;whiteSpace=wrap;html=1;" parent="1" vertex="1">
          <mxGeometry x="-418" y="860" width="190" height="40" as="geometry" />
        </mxCell>
        <mxCell id="DCmgsxbjKsTqkuRd_Q3x-137" value="" style="endArrow=none;dashed=1;html=1;rounded=0;" parent="1" edge="1">
          <mxGeometry width="50" height="50" relative="1" as="geometry">
            <mxPoint x="-378" y="889.33" as="sourcePoint" />
            <mxPoint x="-268" y="889.33" as="targetPoint" />
          </mxGeometry>
        </mxCell>
        <mxCell id="DCmgsxbjKsTqkuRd_Q3x-138" value="AttendanceID" style="ellipse;whiteSpace=wrap;html=1;" parent="1" vertex="1">
          <mxGeometry x="691.5" y="337" width="154" height="33" as="geometry" />
        </mxCell>
        <mxCell id="DCmgsxbjKsTqkuRd_Q3x-139" value="" style="endArrow=none;dashed=1;html=1;rounded=0;" parent="1" edge="1">
          <mxGeometry width="50" height="50" relative="1" as="geometry">
            <mxPoint x="701.75" y="361.5" as="sourcePoint" />
            <mxPoint x="801.75" y="361.5" as="targetPoint" />
          </mxGeometry>
        </mxCell>
        <mxCell id="DCmgsxbjKsTqkuRd_Q3x-140" value="AttendanceID" style="ellipse;whiteSpace=wrap;html=1;" parent="1" vertex="1">
          <mxGeometry x="524" y="-116.5" width="154" height="33" as="geometry" />
        </mxCell>
        <mxCell id="DCmgsxbjKsTqkuRd_Q3x-141" value="" style="endArrow=none;dashed=1;html=1;rounded=0;" parent="1" edge="1">
          <mxGeometry width="50" height="50" relative="1" as="geometry">
            <mxPoint x="551" y="-92" as="sourcePoint" />
            <mxPoint x="651" y="-92" as="targetPoint" />
          </mxGeometry>
        </mxCell>
        <mxCell id="DCmgsxbjKsTqkuRd_Q3x-142" value="" style="endArrow=none;html=1;rounded=0;entryX=0;entryY=0.5;entryDx=0;entryDy=0;" parent="1" target="kAmNbd_d05ljZrrda5HX-24" edge="1">
          <mxGeometry width="50" height="50" relative="1" as="geometry">
            <mxPoint x="-1030" y="340" as="sourcePoint" />
            <mxPoint x="-910" y="310" as="targetPoint" />
            <Array as="points">
              <mxPoint x="-1030" y="410" />
            </Array>
          </mxGeometry>
        </mxCell>
        <mxCell id="DCmgsxbjKsTqkuRd_Q3x-143" value="" style="endArrow=none;html=1;rounded=0;entryX=1;entryY=0.5;entryDx=0;entryDy=0;" parent="1" target="DCmgsxbjKsTqkuRd_Q3x-64" edge="1">
          <mxGeometry width="50" height="50" relative="1" as="geometry">
            <mxPoint x="-1030" y="340" as="sourcePoint" />
            <mxPoint x="-940" y="280" as="targetPoint" />
          </mxGeometry>
        </mxCell>
        <mxCell id="DCmgsxbjKsTqkuRd_Q3x-144" value="" style="endArrow=none;html=1;rounded=0;entryX=0;entryY=0.5;entryDx=0;entryDy=0;exitX=1;exitY=0.5;exitDx=0;exitDy=0;" parent="1" source="DCmgsxbjKsTqkuRd_Q3x-65" target="kAmNbd_d05ljZrrda5HX-24" edge="1">
          <mxGeometry width="50" height="50" relative="1" as="geometry">
            <mxPoint x="-1090" y="410" as="sourcePoint" />
            <mxPoint x="-970" y="450" as="targetPoint" />
          </mxGeometry>
        </mxCell>
        <mxCell id="DCmgsxbjKsTqkuRd_Q3x-145" value="" style="endArrow=none;html=1;rounded=0;exitX=1;exitY=0.5;exitDx=0;exitDy=0;" parent="1" source="DCmgsxbjKsTqkuRd_Q3x-72" edge="1">
          <mxGeometry width="50" height="50" relative="1" as="geometry">
            <mxPoint x="-1030" y="480" as="sourcePoint" />
            <mxPoint x="-1030" y="410" as="targetPoint" />
            <Array as="points">
              <mxPoint x="-1030" y="480" />
            </Array>
          </mxGeometry>
        </mxCell>
        <mxCell id="DCmgsxbjKsTqkuRd_Q3x-147" value="" style="endArrow=none;html=1;rounded=0;exitX=1;exitY=0.5;exitDx=0;exitDy=0;" parent="1" source="DCmgsxbjKsTqkuRd_Q3x-70" edge="1">
          <mxGeometry width="50" height="50" relative="1" as="geometry">
            <mxPoint x="-1060" y="560" as="sourcePoint" />
            <mxPoint x="-1030" y="480" as="targetPoint" />
            <Array as="points">
              <mxPoint x="-1030" y="560" />
            </Array>
          </mxGeometry>
        </mxCell>
        <mxCell id="DCmgsxbjKsTqkuRd_Q3x-148" value="" style="endArrow=none;html=1;rounded=0;entryX=0.5;entryY=1;entryDx=0;entryDy=0;" parent="1" target="kAmNbd_d05ljZrrda5HX-28" edge="1">
          <mxGeometry width="50" height="50" relative="1" as="geometry">
            <mxPoint x="-950" y="737.5" as="sourcePoint" />
            <mxPoint x="-900" y="687.5" as="targetPoint" />
            <Array as="points">
              <mxPoint x="-880" y="737.5" />
            </Array>
          </mxGeometry>
        </mxCell>
        <mxCell id="DCmgsxbjKsTqkuRd_Q3x-149" value="" style="endArrow=none;html=1;rounded=0;exitX=0.5;exitY=0;exitDx=0;exitDy=0;" parent="1" source="DCmgsxbjKsTqkuRd_Q3x-73" edge="1">
          <mxGeometry width="50" height="50" relative="1" as="geometry">
            <mxPoint x="-1130" y="787.5" as="sourcePoint" />
            <mxPoint x="-950" y="737.5" as="targetPoint" />
            <Array as="points">
              <mxPoint x="-1125" y="738" />
            </Array>
          </mxGeometry>
        </mxCell>
        <mxCell id="DCmgsxbjKsTqkuRd_Q3x-151" value="" style="endArrow=none;html=1;rounded=0;entryX=0.5;entryY=1;entryDx=0;entryDy=0;exitX=0.5;exitY=0;exitDx=0;exitDy=0;" parent="1" source="DCmgsxbjKsTqkuRd_Q3x-77" target="kAmNbd_d05ljZrrda5HX-28" edge="1">
          <mxGeometry width="50" height="50" relative="1" as="geometry">
            <mxPoint x="-1020" y="696.5" as="sourcePoint" />
            <mxPoint x="-900" y="706.5" as="targetPoint" />
            <Array as="points">
              <mxPoint x="-960" y="737.5" />
              <mxPoint x="-880" y="737.5" />
            </Array>
          </mxGeometry>
        </mxCell>
        <mxCell id="DCmgsxbjKsTqkuRd_Q3x-152" value="" style="endArrow=none;html=1;rounded=0;exitX=0.5;exitY=1;exitDx=0;exitDy=0;entryX=0.5;entryY=0;entryDx=0;entryDy=0;" parent="1" source="kAmNbd_d05ljZrrda5HX-28" target="DCmgsxbjKsTqkuRd_Q3x-78" edge="1">
          <mxGeometry width="50" height="50" relative="1" as="geometry">
            <mxPoint x="-780" y="727.5" as="sourcePoint" />
            <mxPoint x="-730" y="727.5" as="targetPoint" />
            <Array as="points">
              <mxPoint x="-880" y="737.5" />
              <mxPoint x="-795" y="737.5" />
            </Array>
          </mxGeometry>
        </mxCell>
        <mxCell id="DCmgsxbjKsTqkuRd_Q3x-153" value="" style="endArrow=none;html=1;rounded=0;exitX=0.5;exitY=1;exitDx=0;exitDy=0;" parent="1" source="kAmNbd_d05ljZrrda5HX-28" target="DCmgsxbjKsTqkuRd_Q3x-74" edge="1">
          <mxGeometry width="50" height="50" relative="1" as="geometry">
            <mxPoint x="-730" y="727.5" as="sourcePoint" />
            <mxPoint x="-610" y="737.5" as="targetPoint" />
            <Array as="points">
              <mxPoint x="-880" y="737.5" />
              <mxPoint x="-585" y="737.5" />
            </Array>
          </mxGeometry>
        </mxCell>
        <mxCell id="DCmgsxbjKsTqkuRd_Q3x-74" value="VolunteerID" style="ellipse;whiteSpace=wrap;html=1;" parent="1" vertex="1">
          <mxGeometry x="-660" y="805" width="150" height="50" as="geometry" />
        </mxCell>
        <mxCell id="DCmgsxbjKsTqkuRd_Q3x-157" value="" style="endArrow=none;dashed=1;html=1;rounded=0;" parent="1" edge="1">
          <mxGeometry width="50" height="50" relative="1" as="geometry">
            <mxPoint x="-635" y="837.5" as="sourcePoint" />
            <mxPoint x="-535" y="837.5" as="targetPoint" />
          </mxGeometry>
        </mxCell>
        <mxCell id="DCmgsxbjKsTqkuRd_Q3x-158" value="" style="endArrow=none;html=1;rounded=0;entryX=0;entryY=0.5;entryDx=0;entryDy=0;exitX=1;exitY=0.5;exitDx=0;exitDy=0;" parent="1" source="DCmgsxbjKsTqkuRd_Q3x-60" target="kAmNbd_d05ljZrrda5HX-9" edge="1">
          <mxGeometry width="50" height="50" relative="1" as="geometry">
            <mxPoint x="-815" y="-10" as="sourcePoint" />
            <mxPoint x="-755" y="170" as="targetPoint" />
            <Array as="points">
              <mxPoint x="-815" y="-10" />
              <mxPoint x="-815" y="120" />
            </Array>
          </mxGeometry>
        </mxCell>
        <mxCell id="DCmgsxbjKsTqkuRd_Q3x-159" value="" style="endArrow=none;html=1;rounded=0;entryX=0;entryY=0.5;entryDx=0;entryDy=0;exitX=1;exitY=0.5;exitDx=0;exitDy=0;" parent="1" source="DCmgsxbjKsTqkuRd_Q3x-61" target="kAmNbd_d05ljZrrda5HX-9" edge="1">
          <mxGeometry width="50" height="50" relative="1" as="geometry">
            <mxPoint x="-865" y="230" as="sourcePoint" />
            <mxPoint x="-815" y="180" as="targetPoint" />
            <Array as="points">
              <mxPoint x="-815" y="80" />
              <mxPoint x="-815" y="120" />
            </Array>
          </mxGeometry>
        </mxCell>
        <mxCell id="DCmgsxbjKsTqkuRd_Q3x-160" value="" style="endArrow=none;html=1;rounded=0;entryX=0;entryY=0.5;entryDx=0;entryDy=0;exitX=1;exitY=0.5;exitDx=0;exitDy=0;" parent="1" source="DCmgsxbjKsTqkuRd_Q3x-66" target="kAmNbd_d05ljZrrda5HX-9" edge="1">
          <mxGeometry width="50" height="50" relative="1" as="geometry">
            <mxPoint x="-865" y="240" as="sourcePoint" />
            <mxPoint x="-815" y="190" as="targetPoint" />
            <Array as="points">
              <mxPoint x="-815" y="160" />
              <mxPoint x="-815" y="120" />
            </Array>
          </mxGeometry>
        </mxCell>
        <mxCell id="DCmgsxbjKsTqkuRd_Q3x-161" value="" style="endArrow=none;html=1;rounded=0;entryX=0;entryY=0.5;entryDx=0;entryDy=0;exitX=1;exitY=0.5;exitDx=0;exitDy=0;" parent="1" source="DCmgsxbjKsTqkuRd_Q3x-62" target="kAmNbd_d05ljZrrda5HX-9" edge="1">
          <mxGeometry width="50" height="50" relative="1" as="geometry">
            <mxPoint x="-815" y="300" as="sourcePoint" />
            <mxPoint x="-775" y="260" as="targetPoint" />
            <Array as="points">
              <mxPoint x="-815" y="258" />
              <mxPoint x="-815" y="120" />
            </Array>
          </mxGeometry>
        </mxCell>
        <mxCell id="DCmgsxbjKsTqkuRd_Q3x-167" value="" style="endArrow=none;html=1;rounded=0;entryX=0;entryY=0.5;entryDx=0;entryDy=0;exitX=1;exitY=0.5;exitDx=0;exitDy=0;" parent="1" source="DCmgsxbjKsTqkuRd_Q3x-79" target="kAmNbd_d05ljZrrda5HX-14" edge="1">
          <mxGeometry width="50" height="50" relative="1" as="geometry">
            <mxPoint x="-180" y="600" as="sourcePoint" />
            <mxPoint x="-190" y="980" as="targetPoint" />
            <Array as="points">
              <mxPoint x="-170" y="637" />
              <mxPoint x="-170" y="826" />
            </Array>
          </mxGeometry>
        </mxCell>
        <mxCell id="DCmgsxbjKsTqkuRd_Q3x-172" value="" style="endArrow=none;html=1;rounded=0;entryX=0;entryY=0.5;entryDx=0;entryDy=0;exitX=1;exitY=0.5;exitDx=0;exitDy=0;" parent="1" source="DCmgsxbjKsTqkuRd_Q3x-80" target="kAmNbd_d05ljZrrda5HX-14" edge="1">
          <mxGeometry width="50" height="50" relative="1" as="geometry">
            <mxPoint x="-190" y="940" as="sourcePoint" />
            <mxPoint x="-140" y="890" as="targetPoint" />
            <Array as="points">
              <mxPoint x="-170" y="727" />
              <mxPoint x="-170" y="826" />
            </Array>
          </mxGeometry>
        </mxCell>
        <mxCell id="DCmgsxbjKsTqkuRd_Q3x-173" value="" style="endArrow=none;html=1;rounded=0;entryX=0;entryY=0.5;entryDx=0;entryDy=0;exitX=1;exitY=0.5;exitDx=0;exitDy=0;" parent="1" source="DCmgsxbjKsTqkuRd_Q3x-81" target="kAmNbd_d05ljZrrda5HX-14" edge="1">
          <mxGeometry width="50" height="50" relative="1" as="geometry">
            <mxPoint x="-180" y="940" as="sourcePoint" />
            <mxPoint x="-130" y="890" as="targetPoint" />
            <Array as="points">
              <mxPoint x="-170" y="798" />
              <mxPoint x="-170" y="826" />
            </Array>
          </mxGeometry>
        </mxCell>
        <mxCell id="DCmgsxbjKsTqkuRd_Q3x-174" value="" style="endArrow=none;html=1;rounded=0;entryX=0;entryY=0.5;entryDx=0;entryDy=0;exitX=1;exitY=0.5;exitDx=0;exitDy=0;" parent="1" source="DCmgsxbjKsTqkuRd_Q3x-136" target="kAmNbd_d05ljZrrda5HX-14" edge="1">
          <mxGeometry width="50" height="50" relative="1" as="geometry">
            <mxPoint x="-245.5" y="935.5" as="sourcePoint" />
            <mxPoint x="-195.5" y="885.5" as="targetPoint" />
            <Array as="points">
              <mxPoint x="-170" y="880" />
              <mxPoint x="-170" y="826" />
            </Array>
          </mxGeometry>
        </mxCell>
        <mxCell id="DCmgsxbjKsTqkuRd_Q3x-176" value="" style="endArrow=none;html=1;rounded=0;entryX=0.5;entryY=1;entryDx=0;entryDy=0;exitX=1;exitY=0.5;exitDx=0;exitDy=0;" parent="1" source="DCmgsxbjKsTqkuRd_Q3x-128" target="kAmNbd_d05ljZrrda5HX-10" edge="1">
          <mxGeometry width="50" height="50" relative="1" as="geometry">
            <mxPoint x="200" y="900" as="sourcePoint" />
            <mxPoint x="250" y="850" as="targetPoint" />
            <Array as="points">
              <mxPoint x="240" y="833" />
            </Array>
          </mxGeometry>
        </mxCell>
        <mxCell id="DCmgsxbjKsTqkuRd_Q3x-177" value="" style="endArrow=none;html=1;rounded=0;entryX=0.5;entryY=1;entryDx=0;entryDy=0;exitX=0;exitY=0.5;exitDx=0;exitDy=0;" parent="1" source="DCmgsxbjKsTqkuRd_Q3x-129" target="kAmNbd_d05ljZrrda5HX-10" edge="1">
          <mxGeometry width="50" height="50" relative="1" as="geometry">
            <mxPoint x="220" y="900" as="sourcePoint" />
            <mxPoint x="270" y="850" as="targetPoint" />
            <Array as="points">
              <mxPoint x="240" y="833" />
            </Array>
          </mxGeometry>
        </mxCell>
        <mxCell id="DCmgsxbjKsTqkuRd_Q3x-178" value="" style="endArrow=none;html=1;rounded=0;entryX=0.5;entryY=1;entryDx=0;entryDy=0;exitX=1;exitY=0.5;exitDx=0;exitDy=0;" parent="1" source="DCmgsxbjKsTqkuRd_Q3x-126" target="kAmNbd_d05ljZrrda5HX-10" edge="1">
          <mxGeometry width="50" height="50" relative="1" as="geometry">
            <mxPoint x="240" y="920" as="sourcePoint" />
            <mxPoint x="300" y="870" as="targetPoint" />
            <Array as="points">
              <mxPoint x="240" y="920" />
            </Array>
          </mxGeometry>
        </mxCell>
        <mxCell id="DCmgsxbjKsTqkuRd_Q3x-179" value="" style="endArrow=none;html=1;rounded=0;entryX=0.5;entryY=1;entryDx=0;entryDy=0;exitX=0;exitY=0.5;exitDx=0;exitDy=0;" parent="1" source="DCmgsxbjKsTqkuRd_Q3x-132" target="kAmNbd_d05ljZrrda5HX-10" edge="1">
          <mxGeometry width="50" height="50" relative="1" as="geometry">
            <mxPoint x="200" y="980" as="sourcePoint" />
            <mxPoint x="250" y="930" as="targetPoint" />
            <Array as="points">
              <mxPoint x="240" y="920" />
            </Array>
          </mxGeometry>
        </mxCell>
        <mxCell id="DCmgsxbjKsTqkuRd_Q3x-181" value="" style="endArrow=none;html=1;rounded=0;entryX=0.5;entryY=1;entryDx=0;entryDy=0;exitX=0;exitY=0.5;exitDx=0;exitDy=0;" parent="1" source="DCmgsxbjKsTqkuRd_Q3x-134" target="kAmNbd_d05ljZrrda5HX-16" edge="1">
          <mxGeometry width="50" height="50" relative="1" as="geometry">
            <mxPoint x="330" y="690" as="sourcePoint" />
            <mxPoint x="380" y="640" as="targetPoint" />
            <Array as="points">
              <mxPoint x="338" y="640" />
            </Array>
          </mxGeometry>
        </mxCell>
        <mxCell id="DCmgsxbjKsTqkuRd_Q3x-182" value="" style="endArrow=none;html=1;rounded=0;entryX=0.5;entryY=1;entryDx=0;entryDy=0;exitX=1;exitY=0.5;exitDx=0;exitDy=0;" parent="1" source="DCmgsxbjKsTqkuRd_Q3x-133" target="kAmNbd_d05ljZrrda5HX-16" edge="1">
          <mxGeometry width="50" height="50" relative="1" as="geometry">
            <mxPoint x="310" y="710" as="sourcePoint" />
            <mxPoint x="360" y="660" as="targetPoint" />
            <Array as="points">
              <mxPoint x="338" y="640" />
            </Array>
          </mxGeometry>
        </mxCell>
        <mxCell id="DCmgsxbjKsTqkuRd_Q3x-183" value="" style="endArrow=none;html=1;rounded=0;entryX=0.5;entryY=1;entryDx=0;entryDy=0;exitX=1;exitY=0.5;exitDx=0;exitDy=0;" parent="1" source="DCmgsxbjKsTqkuRd_Q3x-135" target="kAmNbd_d05ljZrrda5HX-16" edge="1">
          <mxGeometry width="50" height="50" relative="1" as="geometry">
            <mxPoint x="310" y="730" as="sourcePoint" />
            <mxPoint x="360" y="680" as="targetPoint" />
            <Array as="points">
              <mxPoint x="338" y="690" />
            </Array>
          </mxGeometry>
        </mxCell>
        <mxCell id="DCmgsxbjKsTqkuRd_Q3x-184" value="" style="endArrow=none;html=1;rounded=0;entryX=0.5;entryY=1;entryDx=0;entryDy=0;exitX=0;exitY=0.5;exitDx=0;exitDy=0;" parent="1" source="DCmgsxbjKsTqkuRd_Q3x-118" target="kAmNbd_d05ljZrrda5HX-16" edge="1">
          <mxGeometry width="50" height="50" relative="1" as="geometry">
            <mxPoint x="320" y="770" as="sourcePoint" />
            <mxPoint x="370" y="720" as="targetPoint" />
            <Array as="points">
              <mxPoint x="338" y="690" />
            </Array>
          </mxGeometry>
        </mxCell>
        <mxCell id="DCmgsxbjKsTqkuRd_Q3x-195" value="" style="endArrow=none;html=1;rounded=0;exitX=0;exitY=0.5;exitDx=0;exitDy=0;entryX=1;entryY=0.5;entryDx=0;entryDy=0;" parent="1" source="kAmNbd_d05ljZrrda5HX-27" target="DCmgsxbjKsTqkuRd_Q3x-90" edge="1">
          <mxGeometry width="50" height="50" relative="1" as="geometry">
            <mxPoint x="140" y="-330" as="sourcePoint" />
            <mxPoint x="-10" y="-470" as="targetPoint" />
            <Array as="points">
              <mxPoint x="-10" y="-246" />
              <mxPoint x="-10" y="-310" />
              <mxPoint x="-10" y="-390" />
              <mxPoint x="-10" y="-456" />
            </Array>
          </mxGeometry>
        </mxCell>
        <mxCell id="DCmgsxbjKsTqkuRd_Q3x-196" value="" style="endArrow=none;html=1;rounded=0;entryX=0;entryY=0.5;entryDx=0;entryDy=0;exitX=1;exitY=0.5;exitDx=0;exitDy=0;" parent="1" source="DCmgsxbjKsTqkuRd_Q3x-91" target="kAmNbd_d05ljZrrda5HX-27" edge="1">
          <mxGeometry width="50" height="50" relative="1" as="geometry">
            <mxPoint x="-90" y="-190" as="sourcePoint" />
            <mxPoint x="-40" y="-240" as="targetPoint" />
            <Array as="points">
              <mxPoint x="-10" y="-396" />
              <mxPoint x="-10" y="-246" />
            </Array>
          </mxGeometry>
        </mxCell>
        <mxCell id="DCmgsxbjKsTqkuRd_Q3x-197" value="" style="endArrow=none;html=1;rounded=0;entryX=0;entryY=0.5;entryDx=0;entryDy=0;exitX=1;exitY=0.5;exitDx=0;exitDy=0;" parent="1" source="DCmgsxbjKsTqkuRd_Q3x-92" target="kAmNbd_d05ljZrrda5HX-27" edge="1">
          <mxGeometry width="50" height="50" relative="1" as="geometry">
            <mxPoint x="20" y="-380" as="sourcePoint" />
            <mxPoint x="-30" y="-220" as="targetPoint" />
            <Array as="points">
              <mxPoint x="-10" y="-343" />
              <mxPoint x="-10" y="-246" />
            </Array>
          </mxGeometry>
        </mxCell>
        <mxCell id="DCmgsxbjKsTqkuRd_Q3x-198" value="" style="endArrow=none;html=1;rounded=0;entryX=0;entryY=0.5;entryDx=0;entryDy=0;exitX=1;exitY=0.5;exitDx=0;exitDy=0;" parent="1" source="DCmgsxbjKsTqkuRd_Q3x-95" target="kAmNbd_d05ljZrrda5HX-27" edge="1">
          <mxGeometry width="50" height="50" relative="1" as="geometry">
            <mxPoint x="-60" y="-170" as="sourcePoint" />
            <mxPoint x="-10" y="-220" as="targetPoint" />
            <Array as="points">
              <mxPoint x="-10" y="-293" />
              <mxPoint x="-10" y="-246" />
            </Array>
          </mxGeometry>
        </mxCell>
        <mxCell id="DCmgsxbjKsTqkuRd_Q3x-203" value="" style="endArrow=none;html=1;rounded=0;exitX=0.5;exitY=0;exitDx=0;exitDy=0;entryX=1;entryY=0.5;entryDx=0;entryDy=0;" parent="1" source="kAmNbd_d05ljZrrda5HX-3" target="DCmgsxbjKsTqkuRd_Q3x-101" edge="1">
          <mxGeometry width="50" height="50" relative="1" as="geometry">
            <mxPoint x="330" y="-470" as="sourcePoint" />
            <mxPoint x="338" y="-560" as="targetPoint" />
            <Array as="points">
              <mxPoint x="338" y="-537" />
            </Array>
          </mxGeometry>
        </mxCell>
        <mxCell id="DCmgsxbjKsTqkuRd_Q3x-205" value="" style="endArrow=none;html=1;rounded=0;exitX=0.5;exitY=0;exitDx=0;exitDy=0;entryX=0;entryY=0.5;entryDx=0;entryDy=0;" parent="1" target="DCmgsxbjKsTqkuRd_Q3x-102" edge="1">
          <mxGeometry width="50" height="50" relative="1" as="geometry">
            <mxPoint x="337.5" y="-443" as="sourcePoint" />
            <mxPoint x="410" y="-537" as="targetPoint" />
            <Array as="points">
              <mxPoint x="338" y="-537" />
            </Array>
          </mxGeometry>
        </mxCell>
        <mxCell id="DCmgsxbjKsTqkuRd_Q3x-207" value="" style="endArrow=none;html=1;rounded=0;exitX=0.5;exitY=0;exitDx=0;exitDy=0;entryX=1;entryY=0.5;entryDx=0;entryDy=0;" parent="1" source="kAmNbd_d05ljZrrda5HX-3" target="DCmgsxbjKsTqkuRd_Q3x-103" edge="1">
          <mxGeometry width="50" height="50" relative="1" as="geometry">
            <mxPoint x="170" y="-380" as="sourcePoint" />
            <mxPoint x="220" y="-430" as="targetPoint" />
            <Array as="points">
              <mxPoint x="338" y="-460" />
            </Array>
          </mxGeometry>
        </mxCell>
        <mxCell id="DCmgsxbjKsTqkuRd_Q3x-208" value="" style="endArrow=none;html=1;rounded=0;exitX=0.5;exitY=0;exitDx=0;exitDy=0;entryX=0;entryY=0.5;entryDx=0;entryDy=0;" parent="1" source="kAmNbd_d05ljZrrda5HX-3" target="DCmgsxbjKsTqkuRd_Q3x-105" edge="1">
          <mxGeometry width="50" height="50" relative="1" as="geometry">
            <mxPoint x="340" y="-460" as="sourcePoint" />
            <mxPoint x="390" y="-510" as="targetPoint" />
            <Array as="points">
              <mxPoint x="338" y="-460" />
            </Array>
          </mxGeometry>
        </mxCell>
        <mxCell id="DCmgsxbjKsTqkuRd_Q3x-214" value="" style="endArrow=none;html=1;rounded=0;exitX=0.25;exitY=0;exitDx=0;exitDy=0;" parent="1" source="kAmNbd_d05ljZrrda5HX-1" target="DCmgsxbjKsTqkuRd_Q3x-51" edge="1">
          <mxGeometry width="50" height="50" relative="1" as="geometry">
            <mxPoint x="10" y="240" as="sourcePoint" />
            <mxPoint x="-130" y="40" as="targetPoint" />
            <Array as="points">
              <mxPoint x="-125" y="140" />
              <mxPoint x="-125" y="100" />
              <mxPoint x="-125" y="70" />
            </Array>
          </mxGeometry>
        </mxCell>
        <mxCell id="DCmgsxbjKsTqkuRd_Q3x-215" value="" style="endArrow=none;html=1;rounded=0;exitX=0.25;exitY=0;exitDx=0;exitDy=0;entryX=1;entryY=0.5;entryDx=0;entryDy=0;" parent="1" source="kAmNbd_d05ljZrrda5HX-1" target="DCmgsxbjKsTqkuRd_Q3x-54" edge="1">
          <mxGeometry width="50" height="50" relative="1" as="geometry">
            <mxPoint x="20" y="250" as="sourcePoint" />
            <mxPoint x="70" y="200" as="targetPoint" />
            <Array as="points">
              <mxPoint x="-125" y="125" />
            </Array>
          </mxGeometry>
        </mxCell>
        <mxCell id="DCmgsxbjKsTqkuRd_Q3x-216" value="" style="endArrow=none;html=1;rounded=0;exitX=0.25;exitY=0;exitDx=0;exitDy=0;entryX=1;entryY=0.5;entryDx=0;entryDy=0;" parent="1" source="kAmNbd_d05ljZrrda5HX-1" target="DCmgsxbjKsTqkuRd_Q3x-55" edge="1">
          <mxGeometry width="50" height="50" relative="1" as="geometry">
            <mxPoint x="40" y="260" as="sourcePoint" />
            <mxPoint x="90" y="210" as="targetPoint" />
            <Array as="points">
              <mxPoint x="-125" y="173" />
            </Array>
          </mxGeometry>
        </mxCell>
        <mxCell id="DCmgsxbjKsTqkuRd_Q3x-217" value="" style="endArrow=none;html=1;rounded=0;exitX=0.25;exitY=0;exitDx=0;exitDy=0;entryX=1;entryY=0.5;entryDx=0;entryDy=0;" parent="1" source="kAmNbd_d05ljZrrda5HX-1" target="DCmgsxbjKsTqkuRd_Q3x-56" edge="1">
          <mxGeometry width="50" height="50" relative="1" as="geometry">
            <mxPoint x="20" y="250" as="sourcePoint" />
            <mxPoint x="70" y="200" as="targetPoint" />
            <Array as="points">
              <mxPoint x="-125" y="219" />
            </Array>
          </mxGeometry>
        </mxCell>
        <mxCell id="DCmgsxbjKsTqkuRd_Q3x-218" value="" style="endArrow=none;html=1;rounded=0;exitX=0.25;exitY=0;exitDx=0;exitDy=0;entryX=1;entryY=0.5;entryDx=0;entryDy=0;" parent="1" source="kAmNbd_d05ljZrrda5HX-1" target="DCmgsxbjKsTqkuRd_Q3x-57" edge="1">
          <mxGeometry width="50" height="50" relative="1" as="geometry">
            <mxPoint x="-10" y="280" as="sourcePoint" />
            <mxPoint x="40" y="230" as="targetPoint" />
            <Array as="points">
              <mxPoint x="-125" y="264" />
            </Array>
          </mxGeometry>
        </mxCell>
        <mxCell id="DCmgsxbjKsTqkuRd_Q3x-219" value="" style="endArrow=none;html=1;rounded=0;exitX=0.25;exitY=0;exitDx=0;exitDy=0;entryX=1;entryY=0.5;entryDx=0;entryDy=0;" parent="1" source="kAmNbd_d05ljZrrda5HX-1" target="DCmgsxbjKsTqkuRd_Q3x-58" edge="1">
          <mxGeometry width="50" height="50" relative="1" as="geometry">
            <mxPoint x="30" y="280" as="sourcePoint" />
            <mxPoint x="80" y="230" as="targetPoint" />
            <Array as="points">
              <mxPoint x="-125" y="307" />
            </Array>
          </mxGeometry>
        </mxCell>
        <mxCell id="DCmgsxbjKsTqkuRd_Q3x-220" value="" style="endArrow=none;html=1;rounded=0;entryX=0;entryY=0;entryDx=0;entryDy=0;exitX=1;exitY=0.5;exitDx=0;exitDy=0;" parent="1" source="DCmgsxbjKsTqkuRd_Q3x-96" target="DCmgsxbjKsTqkuRd_Q3x-379" edge="1">
          <mxGeometry width="50" height="50" relative="1" as="geometry">
            <mxPoint x="310" y="-120" as="sourcePoint" />
            <mxPoint x="440" y="-160" as="targetPoint" />
            <Array as="points">
              <mxPoint x="290" y="-140" />
            </Array>
          </mxGeometry>
        </mxCell>
        <mxCell id="DCmgsxbjKsTqkuRd_Q3x-221" value="" style="endArrow=none;html=1;rounded=0;entryX=0;entryY=0;entryDx=0;entryDy=0;exitX=1;exitY=0.5;exitDx=0;exitDy=0;" parent="1" source="DCmgsxbjKsTqkuRd_Q3x-97" target="DCmgsxbjKsTqkuRd_Q3x-379" edge="1">
          <mxGeometry width="50" height="50" relative="1" as="geometry">
            <mxPoint x="370" y="-110" as="sourcePoint" />
            <mxPoint x="420" y="-160" as="targetPoint" />
            <Array as="points">
              <mxPoint x="290" y="-100" />
            </Array>
          </mxGeometry>
        </mxCell>
        <mxCell id="DCmgsxbjKsTqkuRd_Q3x-222" value="" style="endArrow=none;html=1;rounded=0;entryX=0;entryY=0;entryDx=0;entryDy=0;exitX=1;exitY=0.5;exitDx=0;exitDy=0;" parent="1" source="DCmgsxbjKsTqkuRd_Q3x-100" target="DCmgsxbjKsTqkuRd_Q3x-379" edge="1">
          <mxGeometry width="50" height="50" relative="1" as="geometry">
            <mxPoint x="340" y="-100" as="sourcePoint" />
            <mxPoint x="390" y="-150" as="targetPoint" />
            <Array as="points">
              <mxPoint x="290" y="-60" />
            </Array>
          </mxGeometry>
        </mxCell>
        <mxCell id="DCmgsxbjKsTqkuRd_Q3x-223" value="" style="endArrow=none;html=1;rounded=0;entryX=0;entryY=0;entryDx=0;entryDy=0;exitX=1;exitY=0.5;exitDx=0;exitDy=0;" parent="1" source="DCmgsxbjKsTqkuRd_Q3x-98" target="DCmgsxbjKsTqkuRd_Q3x-379" edge="1">
          <mxGeometry width="50" height="50" relative="1" as="geometry">
            <mxPoint x="400" y="-110" as="sourcePoint" />
            <mxPoint x="450" y="-160" as="targetPoint" />
            <Array as="points">
              <mxPoint x="290" y="-10" />
            </Array>
          </mxGeometry>
        </mxCell>
        <mxCell id="DCmgsxbjKsTqkuRd_Q3x-225" value="" style="endArrow=none;html=1;rounded=0;exitX=0;exitY=0;exitDx=0;exitDy=0;entryX=1;entryY=0.5;entryDx=0;entryDy=0;" parent="1" source="QD1m-1uply2OvwpmF5vF-21" target="DCmgsxbjKsTqkuRd_Q3x-111" edge="1">
          <mxGeometry width="50" height="50" relative="1" as="geometry">
            <mxPoint x="400" y="200" as="sourcePoint" />
            <mxPoint x="450" y="150" as="targetPoint" />
            <Array as="points">
              <mxPoint x="270" y="65" />
            </Array>
          </mxGeometry>
        </mxCell>
        <mxCell id="DCmgsxbjKsTqkuRd_Q3x-226" value="" style="endArrow=none;html=1;rounded=0;exitX=0;exitY=0;exitDx=0;exitDy=0;entryX=1;entryY=0.5;entryDx=0;entryDy=0;" parent="1" source="QD1m-1uply2OvwpmF5vF-21" target="DCmgsxbjKsTqkuRd_Q3x-112" edge="1">
          <mxGeometry width="50" height="50" relative="1" as="geometry">
            <mxPoint x="360" y="300" as="sourcePoint" />
            <mxPoint x="400" y="100" as="targetPoint" />
            <Array as="points">
              <mxPoint x="270" y="120" />
            </Array>
          </mxGeometry>
        </mxCell>
        <mxCell id="DCmgsxbjKsTqkuRd_Q3x-227" value="" style="endArrow=none;html=1;rounded=0;exitX=0;exitY=0;exitDx=0;exitDy=0;entryX=1;entryY=0.5;entryDx=0;entryDy=0;" parent="1" source="QD1m-1uply2OvwpmF5vF-21" target="DCmgsxbjKsTqkuRd_Q3x-113" edge="1">
          <mxGeometry width="50" height="50" relative="1" as="geometry">
            <mxPoint x="380" y="190" as="sourcePoint" />
            <mxPoint x="430" y="140" as="targetPoint" />
            <Array as="points">
              <mxPoint x="270" y="165" />
            </Array>
          </mxGeometry>
        </mxCell>
        <mxCell id="DCmgsxbjKsTqkuRd_Q3x-228" value="" style="endArrow=none;html=1;rounded=0;exitX=0;exitY=0;exitDx=0;exitDy=0;entryX=1;entryY=0.5;entryDx=0;entryDy=0;" parent="1" source="QD1m-1uply2OvwpmF5vF-21" target="DCmgsxbjKsTqkuRd_Q3x-82" edge="1">
          <mxGeometry width="50" height="50" relative="1" as="geometry">
            <mxPoint x="410" y="190" as="sourcePoint" />
            <mxPoint x="460" y="140" as="targetPoint" />
            <Array as="points">
              <mxPoint x="270" y="220" />
            </Array>
          </mxGeometry>
        </mxCell>
        <mxCell id="DCmgsxbjKsTqkuRd_Q3x-229" value="" style="endArrow=none;html=1;rounded=0;exitX=1;exitY=0.5;exitDx=0;exitDy=0;entryX=0;entryY=0.5;entryDx=0;entryDy=0;" parent="1" source="kAmNbd_d05ljZrrda5HX-5" target="DCmgsxbjKsTqkuRd_Q3x-109" edge="1">
          <mxGeometry width="50" height="50" relative="1" as="geometry">
            <mxPoint x="1364.5" y="-370" as="sourcePoint" />
            <mxPoint x="974.5" y="-180" as="targetPoint" />
            <Array as="points">
              <mxPoint x="974.5" y="-246" />
              <mxPoint x="974.5" y="-193" />
            </Array>
          </mxGeometry>
        </mxCell>
        <mxCell id="DCmgsxbjKsTqkuRd_Q3x-230" value="" style="endArrow=none;html=1;rounded=0;exitX=1;exitY=0.5;exitDx=0;exitDy=0;entryX=0;entryY=0.5;entryDx=0;entryDy=0;" parent="1" source="kAmNbd_d05ljZrrda5HX-5" target="DCmgsxbjKsTqkuRd_Q3x-108" edge="1">
          <mxGeometry width="50" height="50" relative="1" as="geometry">
            <mxPoint x="1204.5" y="-310" as="sourcePoint" />
            <mxPoint x="984.5" y="-310" as="targetPoint" />
            <Array as="points">
              <mxPoint x="974.5" y="-246" />
              <mxPoint x="974.5" y="-261" />
            </Array>
          </mxGeometry>
        </mxCell>
        <mxCell id="DCmgsxbjKsTqkuRd_Q3x-231" value="" style="endArrow=none;html=1;rounded=0;exitX=1;exitY=0.5;exitDx=0;exitDy=0;entryX=0;entryY=0.5;entryDx=0;entryDy=0;" parent="1" source="kAmNbd_d05ljZrrda5HX-5" target="DCmgsxbjKsTqkuRd_Q3x-107" edge="1">
          <mxGeometry width="50" height="50" relative="1" as="geometry">
            <mxPoint x="1254.5" y="-300" as="sourcePoint" />
            <mxPoint x="1304.5" y="-350" as="targetPoint" />
            <Array as="points">
              <mxPoint x="974.5" y="-246" />
              <mxPoint x="974.5" y="-327" />
            </Array>
          </mxGeometry>
        </mxCell>
        <mxCell id="DCmgsxbjKsTqkuRd_Q3x-232" value="" style="endArrow=none;html=1;rounded=0;exitX=1;exitY=0.5;exitDx=0;exitDy=0;entryX=0;entryY=0.5;entryDx=0;entryDy=0;" parent="1" source="kAmNbd_d05ljZrrda5HX-5" target="DCmgsxbjKsTqkuRd_Q3x-106" edge="1">
          <mxGeometry width="50" height="50" relative="1" as="geometry">
            <mxPoint x="1234.5" y="-310" as="sourcePoint" />
            <mxPoint x="1284.5" y="-360" as="targetPoint" />
            <Array as="points">
              <mxPoint x="974.5" y="-246" />
              <mxPoint x="974.5" y="-400" />
            </Array>
          </mxGeometry>
        </mxCell>
        <mxCell id="DCmgsxbjKsTqkuRd_Q3x-234" value="" style="endArrow=none;html=1;rounded=0;entryX=1;entryY=0.5;entryDx=0;entryDy=0;" parent="1" source="kAmNbd_d05ljZrrda5HX-20" target="DCmgsxbjKsTqkuRd_Q3x-116" edge="1">
          <mxGeometry width="50" height="50" relative="1" as="geometry">
            <mxPoint x="751" y="-90" as="sourcePoint" />
            <mxPoint x="801" y="-140" as="targetPoint" />
            <Array as="points">
              <mxPoint x="756" y="-30" />
            </Array>
          </mxGeometry>
        </mxCell>
        <mxCell id="DCmgsxbjKsTqkuRd_Q3x-237" value="" style="endArrow=none;html=1;rounded=0;exitX=0.5;exitY=0;exitDx=0;exitDy=0;entryX=0;entryY=0.5;entryDx=0;entryDy=0;" parent="1" source="kAmNbd_d05ljZrrda5HX-20" target="DCmgsxbjKsTqkuRd_Q3x-117" edge="1">
          <mxGeometry width="50" height="50" relative="1" as="geometry">
            <mxPoint x="791" y="-160" as="sourcePoint" />
            <mxPoint x="841" y="-210" as="targetPoint" />
            <Array as="points">
              <mxPoint x="756" y="-30" />
            </Array>
          </mxGeometry>
        </mxCell>
        <mxCell id="DCmgsxbjKsTqkuRd_Q3x-238" value="" style="endArrow=none;html=1;rounded=0;exitX=0.5;exitY=0;exitDx=0;exitDy=0;entryX=1;entryY=0.5;entryDx=0;entryDy=0;" parent="1" source="kAmNbd_d05ljZrrda5HX-20" target="DCmgsxbjKsTqkuRd_Q3x-140" edge="1">
          <mxGeometry width="50" height="50" relative="1" as="geometry">
            <mxPoint x="781" y="-120" as="sourcePoint" />
            <mxPoint x="831" y="-170" as="targetPoint" />
            <Array as="points">
              <mxPoint x="756" y="-100" />
            </Array>
          </mxGeometry>
        </mxCell>
        <mxCell id="DCmgsxbjKsTqkuRd_Q3x-239" value="" style="endArrow=none;html=1;rounded=0;exitX=0.5;exitY=0;exitDx=0;exitDy=0;entryX=0;entryY=0.5;entryDx=0;entryDy=0;" parent="1" source="kAmNbd_d05ljZrrda5HX-20" target="DCmgsxbjKsTqkuRd_Q3x-121" edge="1">
          <mxGeometry width="50" height="50" relative="1" as="geometry">
            <mxPoint x="831" y="-140" as="sourcePoint" />
            <mxPoint x="821.0000000000082" y="-100.00000000000023" as="targetPoint" />
            <Array as="points">
              <mxPoint x="756" y="-100" />
            </Array>
          </mxGeometry>
        </mxCell>
        <mxCell id="DCmgsxbjKsTqkuRd_Q3x-241" value="" style="endArrow=none;html=1;rounded=0;exitX=0.75;exitY=0;exitDx=0;exitDy=0;entryX=0;entryY=0.5;entryDx=0;entryDy=0;" parent="1" source="kAmNbd_d05ljZrrda5HX-17" target="DCmgsxbjKsTqkuRd_Q3x-138" edge="1">
          <mxGeometry width="50" height="50" relative="1" as="geometry">
            <mxPoint x="560" y="310" as="sourcePoint" />
            <mxPoint x="610" y="260" as="targetPoint" />
            <Array as="points">
              <mxPoint x="608" y="354" />
            </Array>
          </mxGeometry>
        </mxCell>
        <mxCell id="DCmgsxbjKsTqkuRd_Q3x-244" value="" style="endArrow=none;html=1;rounded=0;exitX=0.75;exitY=0;exitDx=0;exitDy=0;entryX=0;entryY=0.5;entryDx=0;entryDy=0;" parent="1" source="kAmNbd_d05ljZrrda5HX-17" target="DCmgsxbjKsTqkuRd_Q3x-122" edge="1">
          <mxGeometry width="50" height="50" relative="1" as="geometry">
            <mxPoint x="610" y="300" as="sourcePoint" />
            <mxPoint x="610" y="170" as="targetPoint" />
            <Array as="points">
              <mxPoint x="610" y="186" />
            </Array>
          </mxGeometry>
        </mxCell>
        <mxCell id="DCmgsxbjKsTqkuRd_Q3x-245" value="" style="endArrow=none;html=1;rounded=0;exitX=0.75;exitY=0;exitDx=0;exitDy=0;entryX=0;entryY=0.5;entryDx=0;entryDy=0;" parent="1" source="kAmNbd_d05ljZrrda5HX-17" target="DCmgsxbjKsTqkuRd_Q3x-123" edge="1">
          <mxGeometry width="50" height="50" relative="1" as="geometry">
            <mxPoint x="880" y="220" as="sourcePoint" />
            <mxPoint x="930" y="170" as="targetPoint" />
            <Array as="points">
              <mxPoint x="608" y="300" />
            </Array>
          </mxGeometry>
        </mxCell>
        <mxCell id="DCmgsxbjKsTqkuRd_Q3x-246" value="" style="endArrow=none;html=1;rounded=0;exitX=0.75;exitY=0;exitDx=0;exitDy=0;entryX=0;entryY=0.5;entryDx=0;entryDy=0;" parent="1" source="kAmNbd_d05ljZrrda5HX-17" target="DCmgsxbjKsTqkuRd_Q3x-124" edge="1">
          <mxGeometry width="50" height="50" relative="1" as="geometry">
            <mxPoint x="630" y="250" as="sourcePoint" />
            <mxPoint x="680" y="200" as="targetPoint" />
            <Array as="points">
              <mxPoint x="610" y="240" />
            </Array>
          </mxGeometry>
        </mxCell>
        <mxCell id="DCmgsxbjKsTqkuRd_Q3x-247" value="&lt;u&gt;GuestID&lt;/u&gt;" style="ellipse;whiteSpace=wrap;html=1;" parent="1" vertex="1">
          <mxGeometry x="1520" y="292.25" width="170" height="55" as="geometry" />
        </mxCell>
        <mxCell id="DCmgsxbjKsTqkuRd_Q3x-250" value="GuestName" style="ellipse;whiteSpace=wrap;html=1;" parent="1" vertex="1">
          <mxGeometry x="1520" y="380" width="180" height="60" as="geometry" />
        </mxCell>
        <mxCell id="DCmgsxbjKsTqkuRd_Q3x-251" value="GuestPhoneNumber" style="ellipse;whiteSpace=wrap;html=1;" parent="1" vertex="1">
          <mxGeometry x="1520" y="480" width="210" height="50" as="geometry" />
        </mxCell>
        <mxCell id="DCmgsxbjKsTqkuRd_Q3x-253" value="" style="endArrow=none;dashed=1;html=1;rounded=0;" parent="1" source="DCmgsxbjKsTqkuRd_Q3x-252" edge="1">
          <mxGeometry width="50" height="50" relative="1" as="geometry">
            <mxPoint x="1544" y="594" as="sourcePoint" />
            <mxPoint x="1644" y="594" as="targetPoint" />
          </mxGeometry>
        </mxCell>
        <mxCell id="DCmgsxbjKsTqkuRd_Q3x-255" value="&lt;u&gt;TransportID&lt;/u&gt;" style="ellipse;whiteSpace=wrap;html=1;" parent="1" vertex="1">
          <mxGeometry x="1210" y="614" width="180" height="50" as="geometry" />
        </mxCell>
        <mxCell id="DCmgsxbjKsTqkuRd_Q3x-256" value="GuestID" style="ellipse;whiteSpace=wrap;html=1;" parent="1" vertex="1">
          <mxGeometry x="1273" y="807.5" width="140" height="50" as="geometry" />
        </mxCell>
        <mxCell id="DCmgsxbjKsTqkuRd_Q3x-257" value="" style="endArrow=none;dashed=1;html=1;rounded=0;" parent="1" edge="1">
          <mxGeometry width="50" height="50" relative="1" as="geometry">
            <mxPoint x="1302.5" y="843.17" as="sourcePoint" />
            <mxPoint x="1387.5" y="843.3399999999999" as="targetPoint" />
          </mxGeometry>
        </mxCell>
        <mxCell id="DCmgsxbjKsTqkuRd_Q3x-258" value="AthleteID" style="ellipse;whiteSpace=wrap;html=1;" parent="1" vertex="1">
          <mxGeometry x="1283" y="870" width="120" height="47" as="geometry" />
        </mxCell>
        <mxCell id="DCmgsxbjKsTqkuRd_Q3x-260" value="" style="endArrow=none;dashed=1;html=1;rounded=0;" parent="1" edge="1">
          <mxGeometry width="50" height="50" relative="1" as="geometry">
            <mxPoint x="1303" y="903.07" as="sourcePoint" />
            <mxPoint x="1383" y="903" as="targetPoint" />
          </mxGeometry>
        </mxCell>
        <mxCell id="DCmgsxbjKsTqkuRd_Q3x-270" value="&lt;u&gt;TailoredTaxiID&lt;/u&gt;" style="ellipse;whiteSpace=wrap;html=1;" parent="1" vertex="1">
          <mxGeometry x="770" y="1130" width="190" height="50" as="geometry" />
        </mxCell>
        <mxCell id="DCmgsxbjKsTqkuRd_Q3x-271" value="CarCapacity" style="ellipse;whiteSpace=wrap;html=1;" parent="1" vertex="1">
          <mxGeometry x="999" y="1130" width="160" height="49" as="geometry" />
        </mxCell>
        <mxCell id="DCmgsxbjKsTqkuRd_Q3x-272" value="&lt;u&gt;CoachID&lt;/u&gt;" style="ellipse;whiteSpace=wrap;html=1;" parent="1" vertex="1">
          <mxGeometry x="1403" y="1040" width="120" height="80" as="geometry" />
        </mxCell>
        <mxCell id="DCmgsxbjKsTqkuRd_Q3x-273" value="Buscapacity" style="ellipse;whiteSpace=wrap;html=1;" parent="1" vertex="1">
          <mxGeometry x="1400" y="910" width="120" height="80" as="geometry" />
        </mxCell>
        <mxCell id="DCmgsxbjKsTqkuRd_Q3x-278" value="&lt;u&gt;AthleteID&lt;/u&gt;" style="ellipse;whiteSpace=wrap;html=1;" parent="1" vertex="1">
          <mxGeometry x="223.75" y="1110" width="147.5" height="50" as="geometry" />
        </mxCell>
        <mxCell id="DCmgsxbjKsTqkuRd_Q3x-279" value="AthleteName" style="ellipse;whiteSpace=wrap;html=1;" parent="1" vertex="1">
          <mxGeometry x="223.75" y="1179" width="150" height="40" as="geometry" />
        </mxCell>
        <mxCell id="DCmgsxbjKsTqkuRd_Q3x-283" value="ReceptionID" style="ellipse;whiteSpace=wrap;html=1;" parent="1" vertex="1">
          <mxGeometry x="219.5" y="1290" width="156" height="60" as="geometry" />
        </mxCell>
        <mxCell id="DCmgsxbjKsTqkuRd_Q3x-284" value="" style="endArrow=none;dashed=1;html=1;rounded=0;" parent="1" edge="1">
          <mxGeometry width="50" height="50" relative="1" as="geometry">
            <mxPoint x="245" y="1330" as="sourcePoint" />
            <mxPoint x="345" y="1330" as="targetPoint" />
          </mxGeometry>
        </mxCell>
        <mxCell id="DCmgsxbjKsTqkuRd_Q3x-285" value="Nationality" style="ellipse;whiteSpace=wrap;html=1;" parent="1" vertex="1">
          <mxGeometry x="223.75" y="1230" width="140" height="50" as="geometry" />
        </mxCell>
        <mxCell id="DCmgsxbjKsTqkuRd_Q3x-286" value="&lt;u&gt;SportingID&lt;/u&gt;" style="ellipse;whiteSpace=wrap;html=1;" parent="1" vertex="1">
          <mxGeometry x="237.5" y="1450" width="130" height="50" as="geometry" />
        </mxCell>
        <mxCell id="DCmgsxbjKsTqkuRd_Q3x-287" value="SportingType" style="ellipse;whiteSpace=wrap;html=1;" parent="1" vertex="1">
          <mxGeometry x="235.5" y="1530" width="140" height="60" as="geometry" />
        </mxCell>
        <mxCell id="DCmgsxbjKsTqkuRd_Q3x-288" value="SportingName" style="ellipse;whiteSpace=wrap;html=1;" parent="1" vertex="1">
          <mxGeometry x="240" y="1630" width="156.75" height="45" as="geometry" />
        </mxCell>
        <mxCell id="DCmgsxbjKsTqkuRd_Q3x-289" value="AthleteID" style="ellipse;whiteSpace=wrap;html=1;" parent="1" vertex="1">
          <mxGeometry x="237.5" y="1710" width="160" height="50" as="geometry" />
        </mxCell>
        <mxCell id="DCmgsxbjKsTqkuRd_Q3x-290" value="" style="endArrow=none;dashed=1;html=1;rounded=0;" parent="1" edge="1">
          <mxGeometry width="50" height="50" relative="1" as="geometry">
            <mxPoint x="272.5" y="1745" as="sourcePoint" />
            <mxPoint x="362.5" y="1745" as="targetPoint" />
          </mxGeometry>
        </mxCell>
        <mxCell id="DCmgsxbjKsTqkuRd_Q3x-291" value="&lt;u&gt;MedicalRecordID&lt;/u&gt;" style="ellipse;whiteSpace=wrap;html=1;" parent="1" vertex="1">
          <mxGeometry x="-348.25" y="1500" width="248" height="50" as="geometry" />
        </mxCell>
        <mxCell id="DCmgsxbjKsTqkuRd_Q3x-292" value="BloodType" style="ellipse;whiteSpace=wrap;html=1;" parent="1" vertex="1">
          <mxGeometry x="19.75" y="1500" width="160" height="50" as="geometry" />
        </mxCell>
        <mxCell id="DCmgsxbjKsTqkuRd_Q3x-293" value="&lt;font size=&quot;1&quot;&gt;Urinetest&lt;/font&gt;" style="ellipse;whiteSpace=wrap;html=1;" parent="1" vertex="1">
          <mxGeometry x="-290.25" y="1590" width="140" height="50" as="geometry" />
        </mxCell>
        <mxCell id="DCmgsxbjKsTqkuRd_Q3x-294" value="AthleteID" style="ellipse;whiteSpace=wrap;html=1;" parent="1" vertex="1">
          <mxGeometry x="21.5" y="1585" width="160.5" height="60" as="geometry" />
        </mxCell>
        <mxCell id="DCmgsxbjKsTqkuRd_Q3x-295" value="" style="endArrow=none;dashed=1;html=1;rounded=0;" parent="1" edge="1">
          <mxGeometry width="50" height="50" relative="1" as="geometry">
            <mxPoint x="70.75" y="1621" as="sourcePoint" />
            <mxPoint x="148.75" y="1621" as="targetPoint" />
          </mxGeometry>
        </mxCell>
        <mxCell id="DCmgsxbjKsTqkuRd_Q3x-296" value="" style="endArrow=none;html=1;rounded=0;exitX=1;exitY=0.5;exitDx=0;exitDy=0;entryX=0;entryY=0.5;entryDx=0;entryDy=0;" parent="1" source="kAmNbd_d05ljZrrda5HX-22" target="DCmgsxbjKsTqkuRd_Q3x-247" edge="1">
          <mxGeometry width="50" height="50" relative="1" as="geometry">
            <mxPoint x="1400" y="190" as="sourcePoint" />
            <mxPoint x="1450" y="140" as="targetPoint" />
            <Array as="points">
              <mxPoint x="1430" y="410" />
              <mxPoint x="1430" y="320" />
            </Array>
          </mxGeometry>
        </mxCell>
        <mxCell id="DCmgsxbjKsTqkuRd_Q3x-297" value="" style="endArrow=none;html=1;rounded=0;entryX=1;entryY=0.5;entryDx=0;entryDy=0;exitX=0;exitY=0.5;exitDx=0;exitDy=0;" parent="1" source="DCmgsxbjKsTqkuRd_Q3x-250" target="kAmNbd_d05ljZrrda5HX-22" edge="1">
          <mxGeometry width="50" height="50" relative="1" as="geometry">
            <mxPoint x="1340" y="560" as="sourcePoint" />
            <mxPoint x="1390" y="510" as="targetPoint" />
            <Array as="points">
              <mxPoint x="1430" y="410" />
            </Array>
          </mxGeometry>
        </mxCell>
        <mxCell id="DCmgsxbjKsTqkuRd_Q3x-298" value="" style="endArrow=none;html=1;rounded=0;exitX=1;exitY=0.5;exitDx=0;exitDy=0;entryX=0;entryY=0.5;entryDx=0;entryDy=0;" parent="1" source="kAmNbd_d05ljZrrda5HX-22" target="DCmgsxbjKsTqkuRd_Q3x-251" edge="1">
          <mxGeometry width="50" height="50" relative="1" as="geometry">
            <mxPoint x="1410" y="180" as="sourcePoint" />
            <mxPoint x="1460" y="130" as="targetPoint" />
            <Array as="points">
              <mxPoint x="1430" y="410" />
              <mxPoint x="1430" y="505" />
            </Array>
          </mxGeometry>
        </mxCell>
        <mxCell id="DCmgsxbjKsTqkuRd_Q3x-299" value="" style="endArrow=none;html=1;rounded=0;exitX=1;exitY=0.5;exitDx=0;exitDy=0;entryX=0;entryY=0.5;entryDx=0;entryDy=0;" parent="1" source="kAmNbd_d05ljZrrda5HX-22" target="DCmgsxbjKsTqkuRd_Q3x-252" edge="1">
          <mxGeometry width="50" height="50" relative="1" as="geometry">
            <mxPoint x="1440" y="220" as="sourcePoint" />
            <mxPoint x="1490" y="170" as="targetPoint" />
            <Array as="points">
              <mxPoint x="1430" y="410" />
              <mxPoint x="1430" y="590" />
            </Array>
          </mxGeometry>
        </mxCell>
        <mxCell id="DCmgsxbjKsTqkuRd_Q3x-300" value="" style="endArrow=none;dashed=1;html=1;rounded=0;" parent="1" target="DCmgsxbjKsTqkuRd_Q3x-252" edge="1">
          <mxGeometry width="50" height="50" relative="1" as="geometry">
            <mxPoint x="1544" y="594" as="sourcePoint" />
            <mxPoint x="1644" y="594" as="targetPoint" />
          </mxGeometry>
        </mxCell>
        <mxCell id="DCmgsxbjKsTqkuRd_Q3x-252" value="ReceptionID" style="ellipse;whiteSpace=wrap;html=1;" parent="1" vertex="1">
          <mxGeometry x="1520" y="564" width="140" height="50" as="geometry" />
        </mxCell>
        <mxCell id="DCmgsxbjKsTqkuRd_Q3x-302" value="ArrivalTime" style="ellipse;whiteSpace=wrap;html=1;" parent="1" vertex="1">
          <mxGeometry x="1257" y="690" width="194" height="50" as="geometry" />
        </mxCell>
        <mxCell id="DCmgsxbjKsTqkuRd_Q3x-303" value="DepartureTime" style="ellipse;whiteSpace=wrap;html=1;" parent="1" vertex="1">
          <mxGeometry x="1259" y="750" width="190" height="50" as="geometry" />
        </mxCell>
        <mxCell id="DCmgsxbjKsTqkuRd_Q3x-304" value="" style="endArrow=none;html=1;rounded=0;exitX=1;exitY=0.25;exitDx=0;exitDy=0;entryX=0;entryY=0.5;entryDx=0;entryDy=0;" parent="1" source="kAmNbd_d05ljZrrda5HX-11" target="DCmgsxbjKsTqkuRd_Q3x-255" edge="1">
          <mxGeometry width="50" height="50" relative="1" as="geometry">
            <mxPoint x="1200" y="720" as="sourcePoint" />
            <mxPoint x="1250" y="670" as="targetPoint" />
            <Array as="points">
              <mxPoint x="1160" y="685" />
              <mxPoint x="1160" y="640" />
            </Array>
          </mxGeometry>
        </mxCell>
        <mxCell id="DCmgsxbjKsTqkuRd_Q3x-305" value="" style="endArrow=none;html=1;rounded=0;entryX=1;entryY=0.25;entryDx=0;entryDy=0;exitX=0;exitY=0.5;exitDx=0;exitDy=0;" parent="1" source="DCmgsxbjKsTqkuRd_Q3x-302" target="kAmNbd_d05ljZrrda5HX-11" edge="1">
          <mxGeometry width="50" height="50" relative="1" as="geometry">
            <mxPoint x="1150" y="750" as="sourcePoint" />
            <mxPoint x="1210" y="710" as="targetPoint" />
            <Array as="points">
              <mxPoint x="1160" y="715" />
              <mxPoint x="1160" y="685" />
            </Array>
          </mxGeometry>
        </mxCell>
        <mxCell id="DCmgsxbjKsTqkuRd_Q3x-306" value="" style="endArrow=none;html=1;rounded=0;entryX=1;entryY=0.25;entryDx=0;entryDy=0;exitX=0;exitY=0.5;exitDx=0;exitDy=0;" parent="1" source="DCmgsxbjKsTqkuRd_Q3x-303" target="kAmNbd_d05ljZrrda5HX-11" edge="1">
          <mxGeometry width="50" height="50" relative="1" as="geometry">
            <mxPoint x="1160" y="790" as="sourcePoint" />
            <mxPoint x="1250" y="740" as="targetPoint" />
            <Array as="points">
              <mxPoint x="1160" y="775" />
              <mxPoint x="1160" y="685" />
            </Array>
          </mxGeometry>
        </mxCell>
        <mxCell id="DCmgsxbjKsTqkuRd_Q3x-307" value="" style="endArrow=none;html=1;rounded=0;exitX=1;exitY=0.25;exitDx=0;exitDy=0;entryX=0;entryY=0.5;entryDx=0;entryDy=0;" parent="1" source="kAmNbd_d05ljZrrda5HX-11" target="DCmgsxbjKsTqkuRd_Q3x-256" edge="1">
          <mxGeometry width="50" height="50" relative="1" as="geometry">
            <mxPoint x="1520" y="760" as="sourcePoint" />
            <mxPoint x="1570" y="710" as="targetPoint" />
            <Array as="points">
              <mxPoint x="1160" y="685" />
              <mxPoint x="1160" y="833" />
            </Array>
          </mxGeometry>
        </mxCell>
        <mxCell id="DCmgsxbjKsTqkuRd_Q3x-308" value="" style="endArrow=none;html=1;rounded=0;exitX=1;exitY=0.25;exitDx=0;exitDy=0;entryX=0;entryY=0.5;entryDx=0;entryDy=0;" parent="1" source="kAmNbd_d05ljZrrda5HX-11" target="DCmgsxbjKsTqkuRd_Q3x-258" edge="1">
          <mxGeometry width="50" height="50" relative="1" as="geometry">
            <mxPoint x="1580" y="740" as="sourcePoint" />
            <mxPoint x="1630" y="690" as="targetPoint" />
            <Array as="points">
              <mxPoint x="1160" y="685" />
              <mxPoint x="1160" y="893" />
            </Array>
          </mxGeometry>
        </mxCell>
        <mxCell id="DCmgsxbjKsTqkuRd_Q3x-309" value="" style="endArrow=none;html=1;rounded=0;entryX=0.5;entryY=1;entryDx=0;entryDy=0;exitX=0.5;exitY=0;exitDx=0;exitDy=0;" parent="1" source="DCmgsxbjKsTqkuRd_Q3x-270" target="DCmgsxbjKsTqkuRd_Q3x-42" edge="1">
          <mxGeometry width="50" height="50" relative="1" as="geometry">
            <mxPoint x="990" y="1230" as="sourcePoint" />
            <mxPoint x="1040" y="1180" as="targetPoint" />
            <Array as="points">
              <mxPoint x="865" y="1050" />
              <mxPoint x="1010" y="1050" />
            </Array>
          </mxGeometry>
        </mxCell>
        <mxCell id="DCmgsxbjKsTqkuRd_Q3x-310" value="" style="endArrow=none;html=1;rounded=0;entryX=0.5;entryY=1;entryDx=0;entryDy=0;exitX=0.5;exitY=0;exitDx=0;exitDy=0;" parent="1" source="DCmgsxbjKsTqkuRd_Q3x-271" target="DCmgsxbjKsTqkuRd_Q3x-42" edge="1">
          <mxGeometry width="50" height="50" relative="1" as="geometry">
            <mxPoint x="1160" y="1130" as="sourcePoint" />
            <mxPoint x="1210" y="1080" as="targetPoint" />
            <Array as="points">
              <mxPoint x="1080" y="1050" />
              <mxPoint x="1010" y="1050" />
            </Array>
          </mxGeometry>
        </mxCell>
        <mxCell id="DCmgsxbjKsTqkuRd_Q3x-311" value="" style="endArrow=none;html=1;rounded=0;entryX=1;entryY=0.5;entryDx=0;entryDy=0;exitX=0;exitY=0.5;exitDx=0;exitDy=0;" parent="1" source="DCmgsxbjKsTqkuRd_Q3x-273" target="DCmgsxbjKsTqkuRd_Q3x-41" edge="1">
          <mxGeometry width="50" height="50" relative="1" as="geometry">
            <mxPoint x="1290" y="1140" as="sourcePoint" />
            <mxPoint x="1340" y="1090" as="targetPoint" />
            <Array as="points">
              <mxPoint x="1280" y="950" />
              <mxPoint x="1280" y="1000" />
            </Array>
          </mxGeometry>
        </mxCell>
        <mxCell id="DCmgsxbjKsTqkuRd_Q3x-312" value="" style="endArrow=none;html=1;rounded=0;entryX=1;entryY=0.5;entryDx=0;entryDy=0;exitX=0;exitY=0.5;exitDx=0;exitDy=0;" parent="1" source="DCmgsxbjKsTqkuRd_Q3x-272" target="DCmgsxbjKsTqkuRd_Q3x-41" edge="1">
          <mxGeometry width="50" height="50" relative="1" as="geometry">
            <mxPoint x="1270" y="1120" as="sourcePoint" />
            <mxPoint x="1330" y="1050" as="targetPoint" />
            <Array as="points">
              <mxPoint x="1280" y="1080" />
              <mxPoint x="1280" y="1000" />
            </Array>
          </mxGeometry>
        </mxCell>
        <mxCell id="DCmgsxbjKsTqkuRd_Q3x-319" value="" style="endArrow=none;html=1;rounded=0;entryX=0;entryY=1;entryDx=0;entryDy=0;exitX=1;exitY=0.5;exitDx=0;exitDy=0;" parent="1" source="DCmgsxbjKsTqkuRd_Q3x-278" target="kAmNbd_d05ljZrrda5HX-21" edge="1">
          <mxGeometry width="50" height="50" relative="1" as="geometry">
            <mxPoint x="450" y="1260" as="sourcePoint" />
            <mxPoint x="490" y="1220" as="targetPoint" />
            <Array as="points">
              <mxPoint x="518" y="1135" />
            </Array>
          </mxGeometry>
        </mxCell>
        <mxCell id="DCmgsxbjKsTqkuRd_Q3x-321" value="" style="endArrow=none;html=1;rounded=0;entryX=0;entryY=1;entryDx=0;entryDy=0;exitX=1;exitY=0.5;exitDx=0;exitDy=0;" parent="1" source="DCmgsxbjKsTqkuRd_Q3x-279" target="kAmNbd_d05ljZrrda5HX-21" edge="1">
          <mxGeometry width="50" height="50" relative="1" as="geometry">
            <mxPoint x="470" y="1230" as="sourcePoint" />
            <mxPoint x="520" y="1180" as="targetPoint" />
            <Array as="points">
              <mxPoint x="518" y="1200" />
            </Array>
          </mxGeometry>
        </mxCell>
        <mxCell id="DCmgsxbjKsTqkuRd_Q3x-322" value="" style="endArrow=none;html=1;rounded=0;entryX=0;entryY=1;entryDx=0;entryDy=0;exitX=1;exitY=0.5;exitDx=0;exitDy=0;" parent="1" source="DCmgsxbjKsTqkuRd_Q3x-285" target="kAmNbd_d05ljZrrda5HX-21" edge="1">
          <mxGeometry width="50" height="50" relative="1" as="geometry">
            <mxPoint x="480" y="1280" as="sourcePoint" />
            <mxPoint x="530" y="1230" as="targetPoint" />
            <Array as="points">
              <mxPoint x="518" y="1255" />
            </Array>
          </mxGeometry>
        </mxCell>
        <mxCell id="DCmgsxbjKsTqkuRd_Q3x-323" value="" style="endArrow=none;html=1;rounded=0;entryX=0;entryY=1;entryDx=0;entryDy=0;exitX=1;exitY=0.5;exitDx=0;exitDy=0;" parent="1" edge="1">
          <mxGeometry width="50" height="50" relative="1" as="geometry">
            <mxPoint x="375.4999999999968" y="1316" as="sourcePoint" />
            <mxPoint x="517.5" y="1086" as="targetPoint" />
            <Array as="points">
              <mxPoint x="520" y="1316" />
            </Array>
          </mxGeometry>
        </mxCell>
        <mxCell id="DCmgsxbjKsTqkuRd_Q3x-324" value="" style="endArrow=none;html=1;rounded=0;entryX=0;entryY=0.5;entryDx=0;entryDy=0;exitX=1;exitY=0.5;exitDx=0;exitDy=0;" parent="1" source="DCmgsxbjKsTqkuRd_Q3x-286" target="QD1m-1uply2OvwpmF5vF-46" edge="1">
          <mxGeometry width="50" height="50" relative="1" as="geometry">
            <mxPoint x="460" y="1740" as="sourcePoint" />
            <mxPoint x="510" y="1690" as="targetPoint" />
            <Array as="points">
              <mxPoint x="450" y="1475" />
              <mxPoint x="450" y="1623" />
            </Array>
          </mxGeometry>
        </mxCell>
        <mxCell id="DCmgsxbjKsTqkuRd_Q3x-325" value="" style="endArrow=none;html=1;rounded=0;entryX=0;entryY=0.5;entryDx=0;entryDy=0;exitX=1;exitY=0.5;exitDx=0;exitDy=0;" parent="1" source="DCmgsxbjKsTqkuRd_Q3x-287" target="QD1m-1uply2OvwpmF5vF-46" edge="1">
          <mxGeometry width="50" height="50" relative="1" as="geometry">
            <mxPoint x="470" y="1730" as="sourcePoint" />
            <mxPoint x="520" y="1680" as="targetPoint" />
            <Array as="points">
              <mxPoint x="450" y="1560" />
              <mxPoint x="450" y="1623" />
            </Array>
          </mxGeometry>
        </mxCell>
        <mxCell id="DCmgsxbjKsTqkuRd_Q3x-326" value="" style="endArrow=none;html=1;rounded=0;entryX=0;entryY=0.5;entryDx=0;entryDy=0;exitX=1;exitY=0.5;exitDx=0;exitDy=0;" parent="1" source="DCmgsxbjKsTqkuRd_Q3x-288" target="QD1m-1uply2OvwpmF5vF-46" edge="1">
          <mxGeometry width="50" height="50" relative="1" as="geometry">
            <mxPoint x="530" y="1770" as="sourcePoint" />
            <mxPoint x="580" y="1720" as="targetPoint" />
            <Array as="points">
              <mxPoint x="450" y="1650" />
              <mxPoint x="450" y="1623" />
            </Array>
          </mxGeometry>
        </mxCell>
        <mxCell id="DCmgsxbjKsTqkuRd_Q3x-327" value="" style="endArrow=none;html=1;rounded=0;entryX=0;entryY=0.5;entryDx=0;entryDy=0;exitX=1;exitY=0.5;exitDx=0;exitDy=0;" parent="1" source="DCmgsxbjKsTqkuRd_Q3x-289" target="QD1m-1uply2OvwpmF5vF-46" edge="1">
          <mxGeometry width="50" height="50" relative="1" as="geometry">
            <mxPoint x="450" y="1780" as="sourcePoint" />
            <mxPoint x="500" y="1730" as="targetPoint" />
            <Array as="points">
              <mxPoint x="450" y="1735" />
              <mxPoint x="450" y="1623" />
            </Array>
          </mxGeometry>
        </mxCell>
        <mxCell id="DCmgsxbjKsTqkuRd_Q3x-328" value="" style="endArrow=none;html=1;rounded=0;entryX=0.5;entryY=1;entryDx=0;entryDy=0;exitX=1;exitY=0.5;exitDx=0;exitDy=0;" parent="1" source="DCmgsxbjKsTqkuRd_Q3x-291" target="kAmNbd_d05ljZrrda5HX-8" edge="1">
          <mxGeometry width="50" height="50" relative="1" as="geometry">
            <mxPoint x="-72.25" y="1570" as="sourcePoint" />
            <mxPoint x="-22.25" y="1520" as="targetPoint" />
            <Array as="points">
              <mxPoint x="-40.25" y="1525" />
            </Array>
          </mxGeometry>
        </mxCell>
        <mxCell id="DCmgsxbjKsTqkuRd_Q3x-329" value="" style="endArrow=none;html=1;rounded=0;entryX=0.5;entryY=1;entryDx=0;entryDy=0;exitX=0;exitY=0.5;exitDx=0;exitDy=0;" parent="1" source="DCmgsxbjKsTqkuRd_Q3x-292" target="kAmNbd_d05ljZrrda5HX-8" edge="1">
          <mxGeometry width="50" height="50" relative="1" as="geometry">
            <mxPoint x="67.75" y="1400" as="sourcePoint" />
            <mxPoint x="117.75" y="1350" as="targetPoint" />
            <Array as="points">
              <mxPoint x="-40.25" y="1525" />
            </Array>
          </mxGeometry>
        </mxCell>
        <mxCell id="DCmgsxbjKsTqkuRd_Q3x-330" value="" style="endArrow=none;html=1;rounded=0;entryX=0.5;entryY=1;entryDx=0;entryDy=0;exitX=1;exitY=0.5;exitDx=0;exitDy=0;" parent="1" source="DCmgsxbjKsTqkuRd_Q3x-293" target="kAmNbd_d05ljZrrda5HX-8" edge="1">
          <mxGeometry width="50" height="50" relative="1" as="geometry">
            <mxPoint x="-102.25" y="1620" as="sourcePoint" />
            <mxPoint x="-52.25" y="1570" as="targetPoint" />
            <Array as="points">
              <mxPoint x="-40.25" y="1615" />
            </Array>
          </mxGeometry>
        </mxCell>
        <mxCell id="DCmgsxbjKsTqkuRd_Q3x-332" value="" style="endArrow=none;html=1;rounded=0;entryX=0.5;entryY=1;entryDx=0;entryDy=0;exitX=0;exitY=0.5;exitDx=0;exitDy=0;" parent="1" source="DCmgsxbjKsTqkuRd_Q3x-294" edge="1">
          <mxGeometry width="50" height="50" relative="1" as="geometry">
            <mxPoint x="47.75000000003911" y="1615" as="sourcePoint" />
            <mxPoint x="-40.25" y="1445" as="targetPoint" />
            <Array as="points">
              <mxPoint x="-40.25" y="1615" />
            </Array>
          </mxGeometry>
        </mxCell>
        <mxCell id="DCmgsxbjKsTqkuRd_Q3x-333" value="1" style="text;html=1;align=center;verticalAlign=middle;whiteSpace=wrap;rounded=0;rotation=-45;" parent="1" vertex="1">
          <mxGeometry x="1087.5" y="630" width="60" height="30" as="geometry" />
        </mxCell>
        <mxCell id="DCmgsxbjKsTqkuRd_Q3x-335" value="(1,M)" style="text;html=1;align=center;verticalAlign=middle;whiteSpace=wrap;rounded=0;rotation=-46;" parent="1" vertex="1">
          <mxGeometry x="1110" y="650" width="60" height="30" as="geometry" />
        </mxCell>
        <mxCell id="DCmgsxbjKsTqkuRd_Q3x-336" value="M" style="text;html=1;align=center;verticalAlign=middle;whiteSpace=wrap;rounded=0;rotation=-48;" parent="1" vertex="1">
          <mxGeometry x="1270" y="460" width="60" height="30" as="geometry" />
        </mxCell>
        <mxCell id="DCmgsxbjKsTqkuRd_Q3x-337" value="(1,1)" style="text;html=1;align=center;verticalAlign=middle;whiteSpace=wrap;rounded=0;rotation=-48;" parent="1" vertex="1">
          <mxGeometry x="1300" y="475" width="60" height="30" as="geometry" />
        </mxCell>
        <mxCell id="DCmgsxbjKsTqkuRd_Q3x-338" value="1" style="text;html=1;align=center;verticalAlign=middle;whiteSpace=wrap;rounded=0;rotation=-45;" parent="1" vertex="1">
          <mxGeometry x="930" y="720" width="60" height="30" as="geometry" />
        </mxCell>
        <mxCell id="DCmgsxbjKsTqkuRd_Q3x-340" value="(1,M)" style="text;html=1;align=center;verticalAlign=middle;whiteSpace=wrap;rounded=0;rotation=-46;" parent="1" vertex="1">
          <mxGeometry x="950" y="747.75" width="60" height="30" as="geometry" />
        </mxCell>
        <mxCell id="DCmgsxbjKsTqkuRd_Q3x-341" value="M" style="text;html=1;align=center;verticalAlign=middle;whiteSpace=wrap;rounded=0;rotation=-48;" parent="1" vertex="1">
          <mxGeometry x="637" y="990" width="60" height="30" as="geometry" />
        </mxCell>
        <mxCell id="DCmgsxbjKsTqkuRd_Q3x-342" value="(1,1)" style="text;html=1;align=center;verticalAlign=middle;whiteSpace=wrap;rounded=0;rotation=-48;" parent="1" vertex="1">
          <mxGeometry x="667" y="1010" width="60" height="30" as="geometry" />
        </mxCell>
        <mxCell id="DCmgsxbjKsTqkuRd_Q3x-343" value="1" style="text;html=1;align=center;verticalAlign=middle;whiteSpace=wrap;rounded=0;" parent="1" vertex="1">
          <mxGeometry x="577.5" y="440" width="60" height="30" as="geometry" />
        </mxCell>
        <mxCell id="DCmgsxbjKsTqkuRd_Q3x-344" value="(1,M)" style="text;html=1;align=center;verticalAlign=middle;whiteSpace=wrap;rounded=0;" parent="1" vertex="1">
          <mxGeometry x="524" y="440" width="60" height="30" as="geometry" />
        </mxCell>
        <mxCell id="DCmgsxbjKsTqkuRd_Q3x-346" value="M" style="text;html=1;align=center;verticalAlign=middle;whiteSpace=wrap;rounded=0;" parent="1" vertex="1">
          <mxGeometry x="577.5" y="995.5" width="60" height="30" as="geometry" />
        </mxCell>
        <mxCell id="DCmgsxbjKsTqkuRd_Q3x-347" value="(1,1)" style="text;html=1;align=center;verticalAlign=middle;whiteSpace=wrap;rounded=0;" parent="1" vertex="1">
          <mxGeometry x="517.5" y="995.5" width="60" height="30" as="geometry" />
        </mxCell>
        <mxCell id="DCmgsxbjKsTqkuRd_Q3x-348" value="1" style="text;html=1;align=center;verticalAlign=middle;whiteSpace=wrap;rounded=0;" parent="1" vertex="1">
          <mxGeometry x="577" y="1090" width="60" height="30" as="geometry" />
        </mxCell>
        <mxCell id="DCmgsxbjKsTqkuRd_Q3x-349" value="(1,M)" style="text;html=1;align=center;verticalAlign=middle;whiteSpace=wrap;rounded=0;" parent="1" vertex="1">
          <mxGeometry x="513" y="1090" width="60" height="30" as="geometry" />
        </mxCell>
        <mxCell id="DCmgsxbjKsTqkuRd_Q3x-350" value="M" style="text;html=1;align=center;verticalAlign=middle;whiteSpace=wrap;rounded=0;" parent="1" vertex="1">
          <mxGeometry x="577" y="1560" width="60" height="30" as="geometry" />
        </mxCell>
        <mxCell id="DCmgsxbjKsTqkuRd_Q3x-351" value="(1,1)" style="text;html=1;align=center;verticalAlign=middle;whiteSpace=wrap;rounded=0;" parent="1" vertex="1">
          <mxGeometry x="524" y="1560" width="60" height="30" as="geometry" />
        </mxCell>
        <mxCell id="DCmgsxbjKsTqkuRd_Q3x-352" value="1" style="text;html=1;align=center;verticalAlign=middle;whiteSpace=wrap;rounded=0;" parent="1" vertex="1">
          <mxGeometry x="457.5" y="1030" width="60" height="30" as="geometry" />
        </mxCell>
        <mxCell id="DCmgsxbjKsTqkuRd_Q3x-353" value="(1,M)" style="text;html=1;align=center;verticalAlign=middle;whiteSpace=wrap;rounded=0;" parent="1" vertex="1">
          <mxGeometry x="457.5" y="1060" width="60" height="30" as="geometry" />
        </mxCell>
        <mxCell id="DCmgsxbjKsTqkuRd_Q3x-355" value="M" style="text;html=1;align=center;verticalAlign=middle;whiteSpace=wrap;rounded=0;" parent="1" vertex="1">
          <mxGeometry x="-40.25" y="1350" width="60" height="30" as="geometry" />
        </mxCell>
        <mxCell id="DCmgsxbjKsTqkuRd_Q3x-356" value="(1,1)" style="text;html=1;align=center;verticalAlign=middle;whiteSpace=wrap;rounded=0;" parent="1" vertex="1">
          <mxGeometry x="-94.75" y="1350" width="60" height="30" as="geometry" />
        </mxCell>
        <mxCell id="DCmgsxbjKsTqkuRd_Q3x-357" value="1" style="text;html=1;align=center;verticalAlign=middle;whiteSpace=wrap;rounded=0;" parent="1" vertex="1">
          <mxGeometry x="337.5" y="440" width="60" height="30" as="geometry" />
        </mxCell>
        <mxCell id="DCmgsxbjKsTqkuRd_Q3x-358" value="(1,M)" style="text;html=1;align=center;verticalAlign=middle;whiteSpace=wrap;rounded=0;" parent="1" vertex="1">
          <mxGeometry x="277.5" y="440" width="60" height="30" as="geometry" />
        </mxCell>
        <mxCell id="DCmgsxbjKsTqkuRd_Q3x-359" value="M" style="text;html=1;align=center;verticalAlign=middle;whiteSpace=wrap;rounded=0;" parent="1" vertex="1">
          <mxGeometry x="337.5" y="510" width="60" height="30" as="geometry" />
        </mxCell>
        <mxCell id="DCmgsxbjKsTqkuRd_Q3x-361" value="(1,1)" style="text;html=1;align=center;verticalAlign=middle;whiteSpace=wrap;rounded=0;" parent="1" vertex="1">
          <mxGeometry x="280.5" y="510" width="60" height="30" as="geometry" />
        </mxCell>
        <mxCell id="DCmgsxbjKsTqkuRd_Q3x-362" value="1" style="text;html=1;align=center;verticalAlign=middle;whiteSpace=wrap;rounded=0;" parent="1" vertex="1">
          <mxGeometry x="407.5" y="380" width="60" height="30" as="geometry" />
        </mxCell>
        <mxCell id="DCmgsxbjKsTqkuRd_Q3x-363" value="M" style="text;html=1;align=center;verticalAlign=middle;whiteSpace=wrap;rounded=0;" parent="1" vertex="1">
          <mxGeometry x="457.5" y="380" width="60" height="30" as="geometry" />
        </mxCell>
        <mxCell id="DCmgsxbjKsTqkuRd_Q3x-364" value="(1,M)" style="text;html=1;align=center;verticalAlign=middle;whiteSpace=wrap;rounded=0;" parent="1" vertex="1">
          <mxGeometry x="407.5" y="410" width="60" height="30" as="geometry" />
        </mxCell>
        <mxCell id="DCmgsxbjKsTqkuRd_Q3x-366" value="(1,1)" style="text;html=1;align=center;verticalAlign=middle;whiteSpace=wrap;rounded=0;" parent="1" vertex="1">
          <mxGeometry x="460" y="410" width="60" height="30" as="geometry" />
        </mxCell>
        <mxCell id="DCmgsxbjKsTqkuRd_Q3x-367" value="1" style="text;html=1;align=center;verticalAlign=middle;whiteSpace=wrap;rounded=0;rotation=-45;" parent="1" vertex="1">
          <mxGeometry x="363.75" y="317.25" width="60" height="30" as="geometry" />
        </mxCell>
        <mxCell id="DCmgsxbjKsTqkuRd_Q3x-369" value="M" style="text;html=1;align=center;verticalAlign=middle;whiteSpace=wrap;rounded=0;rotation=-48;" parent="1" vertex="1">
          <mxGeometry x="584" y="85" width="60" height="30" as="geometry" />
        </mxCell>
        <mxCell id="DCmgsxbjKsTqkuRd_Q3x-371" value="(1,M)" style="text;html=1;align=center;verticalAlign=middle;whiteSpace=wrap;rounded=0;rotation=-46;" parent="1" vertex="1">
          <mxGeometry x="390" y="340" width="60" height="30" as="geometry" />
        </mxCell>
        <mxCell id="DCmgsxbjKsTqkuRd_Q3x-374" value="(1,1)" style="text;html=1;align=center;verticalAlign=middle;whiteSpace=wrap;rounded=0;rotation=-48;" parent="1" vertex="1">
          <mxGeometry x="617.5" y="105" width="60" height="30" as="geometry" />
        </mxCell>
        <mxCell id="DCmgsxbjKsTqkuRd_Q3x-378" value="1" style="text;html=1;align=center;verticalAlign=middle;whiteSpace=wrap;rounded=0;" parent="1" vertex="1">
          <mxGeometry x="330" y="-216" width="60" height="30" as="geometry" />
        </mxCell>
        <mxCell id="DCmgsxbjKsTqkuRd_Q3x-379" value="(1,M)" style="text;html=1;align=center;verticalAlign=middle;whiteSpace=wrap;rounded=0;" parent="1" vertex="1">
          <mxGeometry x="287.5" y="-217" width="60" height="30" as="geometry" />
        </mxCell>
        <mxCell id="DCmgsxbjKsTqkuRd_Q3x-388" value="M" style="text;html=1;align=center;verticalAlign=middle;whiteSpace=wrap;rounded=0;" parent="1" vertex="1">
          <mxGeometry x="320" y="350" width="60" height="30" as="geometry" />
        </mxCell>
        <mxCell id="DCmgsxbjKsTqkuRd_Q3x-389" value="(1,1)" style="text;html=1;align=center;verticalAlign=middle;whiteSpace=wrap;rounded=0;" parent="1" vertex="1">
          <mxGeometry x="275.5" y="350" width="60" height="30" as="geometry" />
        </mxCell>
        <mxCell id="DCmgsxbjKsTqkuRd_Q3x-392" value="(1,M)" style="text;html=1;align=center;verticalAlign=middle;whiteSpace=wrap;rounded=0;" parent="1" vertex="1">
          <mxGeometry x="400" y="-240" width="60" height="30" as="geometry" />
        </mxCell>
        <mxCell id="DCmgsxbjKsTqkuRd_Q3x-393" value="1" style="text;html=1;align=center;verticalAlign=middle;whiteSpace=wrap;rounded=0;" parent="1" vertex="1">
          <mxGeometry x="212.5" y="-276" width="60" height="30" as="geometry" />
        </mxCell>
        <mxCell id="DCmgsxbjKsTqkuRd_Q3x-395" value="1" style="text;html=1;align=center;verticalAlign=middle;whiteSpace=wrap;rounded=0;" parent="1" vertex="1">
          <mxGeometry x="397.5" y="-276" width="60" height="30" as="geometry" />
        </mxCell>
        <mxCell id="DCmgsxbjKsTqkuRd_Q3x-396" value="(1,M)" style="text;html=1;align=center;verticalAlign=middle;whiteSpace=wrap;rounded=0;" parent="1" vertex="1">
          <mxGeometry x="212.5" y="-246" width="60" height="30" as="geometry" />
        </mxCell>
        <mxCell id="DCmgsxbjKsTqkuRd_Q3x-397" value="M" style="text;html=1;align=center;verticalAlign=middle;whiteSpace=wrap;rounded=0;" parent="1" vertex="1">
          <mxGeometry x="697" y="-276" width="60" height="30" as="geometry" />
        </mxCell>
        <mxCell id="DCmgsxbjKsTqkuRd_Q3x-400" value="(1,1)" style="text;html=1;align=center;verticalAlign=middle;whiteSpace=wrap;rounded=0;" parent="1" vertex="1">
          <mxGeometry x="697" y="-246" width="60" height="30" as="geometry" />
        </mxCell>
        <mxCell id="DCmgsxbjKsTqkuRd_Q3x-401" value="1" style="text;html=1;align=center;verticalAlign=middle;whiteSpace=wrap;rounded=0;" parent="1" vertex="1">
          <mxGeometry x="337.5" y="-306" width="60" height="30" as="geometry" />
        </mxCell>
        <mxCell id="DCmgsxbjKsTqkuRd_Q3x-402" value="(1,M)" style="text;html=1;align=center;verticalAlign=middle;whiteSpace=wrap;rounded=0;" parent="1" vertex="1">
          <mxGeometry x="277.5" y="-306" width="60" height="30" as="geometry" />
        </mxCell>
        <mxCell id="DCmgsxbjKsTqkuRd_Q3x-403" value="M" style="text;html=1;align=center;verticalAlign=middle;whiteSpace=wrap;rounded=0;" parent="1" vertex="1">
          <mxGeometry x="337.5" y="-375" width="60" height="30" as="geometry" />
        </mxCell>
        <mxCell id="DCmgsxbjKsTqkuRd_Q3x-404" value="(1,1)" style="text;html=1;align=center;verticalAlign=middle;whiteSpace=wrap;rounded=0;" parent="1" vertex="1">
          <mxGeometry x="280.5" y="-375" width="60" height="30" as="geometry" />
        </mxCell>
        <mxCell id="DCmgsxbjKsTqkuRd_Q3x-405" value="1" style="text;html=1;align=center;verticalAlign=middle;whiteSpace=wrap;rounded=0;rotation=-30;" parent="1" vertex="1">
          <mxGeometry x="-20" y="-112.25" width="60" height="30" as="geometry" />
        </mxCell>
        <mxCell id="DCmgsxbjKsTqkuRd_Q3x-407" value="(1,M)" style="text;html=1;align=center;verticalAlign=middle;whiteSpace=wrap;rounded=0;rotation=-30;" parent="1" vertex="1">
          <mxGeometry y="-82.25" width="60" height="30" as="geometry" />
        </mxCell>
        <mxCell id="DCmgsxbjKsTqkuRd_Q3x-408" value="M" style="text;html=1;align=center;verticalAlign=middle;whiteSpace=wrap;rounded=0;rotation=-30;" parent="1" vertex="1">
          <mxGeometry x="182" y="-217" width="60" height="30" as="geometry" />
        </mxCell>
        <mxCell id="DCmgsxbjKsTqkuRd_Q3x-409" value="(1,1)" style="text;html=1;align=center;verticalAlign=middle;whiteSpace=wrap;rounded=0;rotation=-30;" parent="1" vertex="1">
          <mxGeometry x="210" y="-195" width="60" height="30" as="geometry" />
        </mxCell>
        <mxCell id="DCmgsxbjKsTqkuRd_Q3x-411" value="(1,1)" style="text;html=1;align=center;verticalAlign=middle;whiteSpace=wrap;rounded=0;" parent="1" vertex="1">
          <mxGeometry x="134.75" y="-246" width="60" height="30" as="geometry" />
        </mxCell>
        <mxCell id="DCmgsxbjKsTqkuRd_Q3x-412" value="M" style="text;html=1;align=center;verticalAlign=middle;whiteSpace=wrap;rounded=0;" parent="1" vertex="1">
          <mxGeometry x="132.5" y="-276" width="60" height="30" as="geometry" />
        </mxCell>
        <mxCell id="DCmgsxbjKsTqkuRd_Q3x-414" value="" style="endArrow=none;html=1;rounded=0;entryX=0;entryY=0.5;entryDx=0;entryDy=0;exitX=1;exitY=0.5;exitDx=0;exitDy=0;" parent="1" source="DCmgsxbjKsTqkuRd_Q3x-87" target="kAmNbd_d05ljZrrda5HX-26" edge="1">
          <mxGeometry width="50" height="50" relative="1" as="geometry">
            <mxPoint x="-190" y="-140" as="sourcePoint" />
            <mxPoint x="-140" y="-190" as="targetPoint" />
            <Array as="points">
              <mxPoint x="-190" y="25" />
              <mxPoint x="-190" y="-48" />
            </Array>
          </mxGeometry>
        </mxCell>
        <mxCell id="DCmgsxbjKsTqkuRd_Q3x-415" value="" style="endArrow=none;html=1;rounded=0;entryX=0;entryY=0.5;entryDx=0;entryDy=0;exitX=1;exitY=0.5;exitDx=0;exitDy=0;" parent="1" source="DCmgsxbjKsTqkuRd_Q3x-86" target="kAmNbd_d05ljZrrda5HX-26" edge="1">
          <mxGeometry width="50" height="50" relative="1" as="geometry">
            <mxPoint x="-210" y="-50" as="sourcePoint" />
            <mxPoint x="-160" y="-100" as="targetPoint" />
            <Array as="points">
              <mxPoint x="-190" y="-70" />
              <mxPoint x="-190" y="-48" />
            </Array>
          </mxGeometry>
        </mxCell>
        <mxCell id="DCmgsxbjKsTqkuRd_Q3x-416" value="" style="endArrow=none;html=1;rounded=0;entryX=0;entryY=0.5;entryDx=0;entryDy=0;exitX=1;exitY=0.5;exitDx=0;exitDy=0;" parent="1" source="DCmgsxbjKsTqkuRd_Q3x-85" target="kAmNbd_d05ljZrrda5HX-26" edge="1">
          <mxGeometry width="50" height="50" relative="1" as="geometry">
            <mxPoint x="-170" y="-90" as="sourcePoint" />
            <mxPoint x="-120" y="-140" as="targetPoint" />
            <Array as="points">
              <mxPoint x="-190" y="-135" />
              <mxPoint x="-190" y="-48" />
            </Array>
          </mxGeometry>
        </mxCell>
        <mxCell id="DCmgsxbjKsTqkuRd_Q3x-417" value="" style="endArrow=none;html=1;rounded=0;exitX=0;exitY=0.5;exitDx=0;exitDy=0;entryX=1;entryY=0.5;entryDx=0;entryDy=0;" parent="1" source="kAmNbd_d05ljZrrda5HX-26" target="DCmgsxbjKsTqkuRd_Q3x-89" edge="1">
          <mxGeometry width="50" height="50" relative="1" as="geometry">
            <mxPoint x="-190" y="-130" as="sourcePoint" />
            <mxPoint x="-190" y="-220" as="targetPoint" />
            <Array as="points">
              <mxPoint x="-190" y="-48" />
              <mxPoint x="-190" y="-140" />
              <mxPoint x="-190" y="-209" />
            </Array>
          </mxGeometry>
        </mxCell>
        <mxCell id="DCmgsxbjKsTqkuRd_Q3x-418" value="M" style="text;html=1;align=center;verticalAlign=middle;whiteSpace=wrap;rounded=0;" parent="1" vertex="1">
          <mxGeometry x="192.5" y="380" width="60" height="30" as="geometry" />
        </mxCell>
        <mxCell id="DCmgsxbjKsTqkuRd_Q3x-420" value="(1,1)" style="text;html=1;align=center;verticalAlign=middle;whiteSpace=wrap;rounded=0;" parent="1" vertex="1">
          <mxGeometry x="-126.5" y="-20" width="60" height="30" as="geometry" />
        </mxCell>
        <mxCell id="DCmgsxbjKsTqkuRd_Q3x-421" value="1" style="text;html=1;align=center;verticalAlign=middle;whiteSpace=wrap;rounded=0;" parent="1" vertex="1">
          <mxGeometry x="-80" y="330" width="60" height="30" as="geometry" />
        </mxCell>
        <mxCell id="DCmgsxbjKsTqkuRd_Q3x-423" value="(1,M)" style="text;html=1;align=center;verticalAlign=middle;whiteSpace=wrap;rounded=0;" parent="1" vertex="1">
          <mxGeometry x="-130" y="330" width="60" height="30" as="geometry" />
        </mxCell>
        <mxCell id="DCmgsxbjKsTqkuRd_Q3x-424" value="1" style="text;html=1;align=center;verticalAlign=middle;whiteSpace=wrap;rounded=0;" parent="1" vertex="1">
          <mxGeometry x="40" y="380" width="60" height="30" as="geometry" />
        </mxCell>
        <mxCell id="DCmgsxbjKsTqkuRd_Q3x-426" value="(1,M)" style="text;html=1;align=center;verticalAlign=middle;whiteSpace=wrap;rounded=0;" parent="1" vertex="1">
          <mxGeometry x="37.5" y="410" width="60" height="30" as="geometry" />
        </mxCell>
        <mxCell id="DCmgsxbjKsTqkuRd_Q3x-427" value="M" style="text;html=1;align=center;verticalAlign=middle;whiteSpace=wrap;rounded=0;" parent="1" vertex="1">
          <mxGeometry x="-80" y="-18" width="60" height="30" as="geometry" />
        </mxCell>
        <mxCell id="DCmgsxbjKsTqkuRd_Q3x-428" value="(1,1)" style="text;html=1;align=center;verticalAlign=middle;whiteSpace=wrap;rounded=0;" parent="1" vertex="1">
          <mxGeometry x="200" y="410" width="60" height="30" as="geometry" />
        </mxCell>
        <mxCell id="DCmgsxbjKsTqkuRd_Q3x-429" value="1" style="text;html=1;align=center;verticalAlign=middle;whiteSpace=wrap;rounded=0;" parent="1" vertex="1">
          <mxGeometry y="460" width="60" height="30" as="geometry" />
        </mxCell>
        <mxCell id="DCmgsxbjKsTqkuRd_Q3x-430" value="(1,M)" style="text;html=1;align=center;verticalAlign=middle;whiteSpace=wrap;rounded=0;" parent="1" vertex="1">
          <mxGeometry x="-40" y="460" width="60" height="30" as="geometry" />
        </mxCell>
        <mxCell id="DCmgsxbjKsTqkuRd_Q3x-431" value="M" style="text;html=1;align=center;verticalAlign=middle;whiteSpace=wrap;rounded=0;rotation=45;" parent="1" vertex="1">
          <mxGeometry x="130" y="700" width="60" height="30" as="geometry" />
        </mxCell>
        <mxCell id="DCmgsxbjKsTqkuRd_Q3x-432" value="(1,1)" style="text;html=1;align=center;verticalAlign=middle;whiteSpace=wrap;rounded=0;rotation=45;" parent="1" vertex="1">
          <mxGeometry x="115" y="720" width="60" height="30" as="geometry" />
        </mxCell>
        <mxCell id="DCmgsxbjKsTqkuRd_Q3x-433" value="1" style="text;html=1;align=center;verticalAlign=middle;whiteSpace=wrap;rounded=0;" parent="1" vertex="1">
          <mxGeometry x="-80" y="460" width="60" height="30" as="geometry" />
        </mxCell>
        <mxCell id="DCmgsxbjKsTqkuRd_Q3x-434" value="(1,M)" style="text;html=1;align=center;verticalAlign=middle;whiteSpace=wrap;rounded=0;" parent="1" vertex="1">
          <mxGeometry x="-130" y="460" width="60" height="30" as="geometry" />
        </mxCell>
        <mxCell id="DCmgsxbjKsTqkuRd_Q3x-435" value="M" style="text;html=1;align=center;verticalAlign=middle;whiteSpace=wrap;rounded=0;" parent="1" vertex="1">
          <mxGeometry x="-70" y="765" width="60" height="30" as="geometry" />
        </mxCell>
        <mxCell id="DCmgsxbjKsTqkuRd_Q3x-436" value="(1,1)" style="text;html=1;align=center;verticalAlign=middle;whiteSpace=wrap;rounded=0;" parent="1" vertex="1">
          <mxGeometry x="-130" y="765.5" width="60" height="30" as="geometry" />
        </mxCell>
        <mxCell id="DCmgsxbjKsTqkuRd_Q3x-437" value="1" style="text;html=1;align=center;verticalAlign=middle;whiteSpace=wrap;rounded=0;rotation=30;" parent="1" vertex="1">
          <mxGeometry x="-240" y="338.5" width="60" height="30" as="geometry" />
        </mxCell>
        <mxCell id="DCmgsxbjKsTqkuRd_Q3x-438" value="(1,M)" style="text;html=1;align=center;verticalAlign=middle;whiteSpace=wrap;rounded=0;rotation=35;" parent="1" vertex="1">
          <mxGeometry x="-247.5" y="368.5" width="60" height="30" as="geometry" />
        </mxCell>
        <mxCell id="DCmgsxbjKsTqkuRd_Q3x-440" value="M" style="text;html=1;align=center;verticalAlign=middle;whiteSpace=wrap;rounded=0;rotation=45;" parent="1" vertex="1">
          <mxGeometry x="-595" y="145" width="60" height="30" as="geometry" />
        </mxCell>
        <mxCell id="DCmgsxbjKsTqkuRd_Q3x-441" value="(1,1)" style="text;html=1;align=center;verticalAlign=middle;whiteSpace=wrap;rounded=0;rotation=45;" parent="1" vertex="1">
          <mxGeometry x="-618" y="165" width="60" height="30" as="geometry" />
        </mxCell>
        <mxCell id="DCmgsxbjKsTqkuRd_Q3x-442" value="1" style="text;html=1;align=center;verticalAlign=middle;whiteSpace=wrap;rounded=0;" parent="1" vertex="1">
          <mxGeometry x="-328" y="380" width="60" height="30" as="geometry" />
        </mxCell>
        <mxCell id="DCmgsxbjKsTqkuRd_Q3x-443" value="(1,M)" style="text;html=1;align=center;verticalAlign=middle;whiteSpace=wrap;rounded=0;" parent="1" vertex="1">
          <mxGeometry x="-320" y="410" width="60" height="30" as="geometry" />
        </mxCell>
        <mxCell id="DCmgsxbjKsTqkuRd_Q3x-445" value="M" style="text;html=1;align=center;verticalAlign=middle;whiteSpace=wrap;rounded=0;rotation=0;" parent="1" vertex="1">
          <mxGeometry x="-700" y="380" width="60" height="30" as="geometry" />
        </mxCell>
        <mxCell id="DCmgsxbjKsTqkuRd_Q3x-447" value="(1,1)" style="text;html=1;align=center;verticalAlign=middle;whiteSpace=wrap;rounded=0;rotation=0;" parent="1" vertex="1">
          <mxGeometry x="-700" y="410" width="60" height="30" as="geometry" />
        </mxCell>
        <mxCell id="DCmgsxbjKsTqkuRd_Q3x-449" value="1" style="text;html=1;align=center;verticalAlign=middle;whiteSpace=wrap;rounded=0;rotation=-25;" parent="1" vertex="1">
          <mxGeometry x="-242.5" y="420" width="60" height="30" as="geometry" />
        </mxCell>
        <mxCell id="DCmgsxbjKsTqkuRd_Q3x-450" value="(1,M)" style="text;html=1;align=center;verticalAlign=middle;whiteSpace=wrap;rounded=0;rotation=-26;" parent="1" vertex="1">
          <mxGeometry x="-240" y="450" width="60" height="30" as="geometry" />
        </mxCell>
        <mxCell id="DCmgsxbjKsTqkuRd_Q3x-451" value="M" style="text;html=1;align=center;verticalAlign=middle;whiteSpace=wrap;rounded=0;rotation=-15;" parent="1" vertex="1">
          <mxGeometry x="-825" y="570" width="60" height="30" as="geometry" />
        </mxCell>
        <mxCell id="DCmgsxbjKsTqkuRd_Q3x-452" value="(1,1)" style="text;html=1;align=center;verticalAlign=middle;whiteSpace=wrap;rounded=0;rotation=-15;" parent="1" vertex="1">
          <mxGeometry x="-810" y="595" width="60" height="30" as="geometry" />
        </mxCell>
        <mxCell id="DCmgsxbjKsTqkuRd_Q3x-453" value="1" style="text;html=1;align=center;verticalAlign=middle;whiteSpace=wrap;rounded=0;rotation=60;" parent="1" vertex="1">
          <mxGeometry x="200" y="304.75" width="60" height="30" as="geometry" />
        </mxCell>
        <mxCell id="DCmgsxbjKsTqkuRd_Q3x-454" value="(1,M)" style="text;html=1;align=center;verticalAlign=middle;whiteSpace=wrap;rounded=0;rotation=50;" parent="1" vertex="1">
          <mxGeometry x="177.5" y="322.25" width="60" height="30" as="geometry" />
        </mxCell>
        <mxCell id="DCmgsxbjKsTqkuRd_Q3x-455" value="M" style="text;html=1;align=center;verticalAlign=middle;whiteSpace=wrap;rounded=0;rotation=55;" parent="1" vertex="1">
          <mxGeometry x="-30" y="-4.5" width="60" height="30" as="geometry" />
        </mxCell>
        <mxCell id="DCmgsxbjKsTqkuRd_Q3x-456" value="(1,1)" style="text;html=1;align=center;verticalAlign=middle;whiteSpace=wrap;rounded=0;rotation=45;" parent="1" vertex="1">
          <mxGeometry x="-50" y="15" width="60" height="30" as="geometry" />
        </mxCell>
        <mxCell id="ZPJrdM8qo10nO9XoSct2-1" value="Usage" style="ellipse;whiteSpace=wrap;html=1;" parent="1" vertex="1">
          <mxGeometry x="169.5" y="970" width="141" height="42.5" as="geometry" />
        </mxCell>
        <mxCell id="ZPJrdM8qo10nO9XoSct2-2" value="" style="endArrow=none;html=1;rounded=0;fontSize=12;startSize=8;endSize=8;curved=1;entryX=0.5;entryY=1;entryDx=0;entryDy=0;exitX=0.5;exitY=0;exitDx=0;exitDy=0;" parent="1" source="ZPJrdM8qo10nO9XoSct2-1" target="kAmNbd_d05ljZrrda5HX-10" edge="1">
          <mxGeometry width="50" height="50" relative="1" as="geometry">
            <mxPoint x="70" y="1020" as="sourcePoint" />
            <mxPoint x="210" y="860" as="targetPoint" />
          </mxGeometry>
        </mxCell>
        <mxCell id="ZPJrdM8qo10nO9XoSct2-3" value="&lt;strong&gt;Availability&lt;/strong&gt;" style="ellipse;whiteSpace=wrap;html=1;" parent="1" vertex="1">
          <mxGeometry x="252.5" y="-670" width="169" height="50" as="geometry" />
        </mxCell>
        <mxCell id="ZPJrdM8qo10nO9XoSct2-4" value="" style="endArrow=none;html=1;rounded=0;fontSize=12;startSize=8;endSize=8;curved=1;exitX=0.5;exitY=0;exitDx=0;exitDy=0;entryX=0.5;entryY=1;entryDx=0;entryDy=0;" parent="1" source="kAmNbd_d05ljZrrda5HX-3" target="ZPJrdM8qo10nO9XoSct2-3" edge="1">
          <mxGeometry width="50" height="50" relative="1" as="geometry">
            <mxPoint x="169.5" y="-630" as="sourcePoint" />
            <mxPoint x="219.5" y="-680" as="targetPoint" />
          </mxGeometry>
        </mxCell>
        <mxCell id="ZPJrdM8qo10nO9XoSct2-5" value="Role" style="ellipse;whiteSpace=wrap;html=1;" parent="1" vertex="1">
          <mxGeometry x="-1070" y="-153" width="150" height="60" as="geometry" />
        </mxCell>
        <mxCell id="ZPJrdM8qo10nO9XoSct2-9" value="" style="endArrow=none;html=1;rounded=0;exitX=1;exitY=0.5;exitDx=0;exitDy=0;" parent="1" edge="1">
          <mxGeometry width="50" height="50" relative="1" as="geometry">
            <mxPoint x="-915.9999999999959" y="-123" as="sourcePoint" />
            <mxPoint x="-741" y="120" as="targetPoint" />
            <Array as="points">
              <mxPoint x="-816" y="-123" />
              <mxPoint x="-816" y="120" />
            </Array>
          </mxGeometry>
        </mxCell>
        <mxCell id="ZPJrdM8qo10nO9XoSct2-10" value="EmergencyType" style="ellipse;whiteSpace=wrap;html=1;" parent="1" vertex="1">
          <mxGeometry x="-1340" y="635" width="220" height="45" as="geometry" />
        </mxCell>
        <mxCell id="ZPJrdM8qo10nO9XoSct2-12" value="" style="endArrow=none;html=1;rounded=0;entryX=0;entryY=0.5;entryDx=0;entryDy=0;exitX=1;exitY=0.5;exitDx=0;exitDy=0;" parent="1" source="ZPJrdM8qo10nO9XoSct2-10" target="kAmNbd_d05ljZrrda5HX-24" edge="1">
          <mxGeometry width="50" height="50" relative="1" as="geometry">
            <mxPoint x="-1030" y="650" as="sourcePoint" />
            <mxPoint x="-930" y="450" as="targetPoint" />
            <Array as="points">
              <mxPoint x="-1030" y="660" />
              <mxPoint x="-1030" y="410" />
            </Array>
          </mxGeometry>
        </mxCell>
        <mxCell id="ZPJrdM8qo10nO9XoSct2-13" value="FeedbackType" style="ellipse;whiteSpace=wrap;html=1;" parent="1" vertex="1">
          <mxGeometry x="-1360" y="792.5" width="120" height="80" as="geometry" />
        </mxCell>
        <mxCell id="ZPJrdM8qo10nO9XoSct2-14" value="" style="endArrow=none;html=1;rounded=0;exitX=0.5;exitY=0;exitDx=0;exitDy=0;entryX=0.5;entryY=1;entryDx=0;entryDy=0;" parent="1" edge="1">
          <mxGeometry width="50" height="50" relative="1" as="geometry">
            <mxPoint x="-1300" y="790.5" as="sourcePoint" />
            <mxPoint x="-880" y="650.9999999999995" as="targetPoint" />
            <Array as="points">
              <mxPoint x="-1300" y="738" />
              <mxPoint x="-880" y="738" />
            </Array>
          </mxGeometry>
        </mxCell>
        <mxCell id="ZPJrdM8qo10nO9XoSct2-15" value="Usage" style="ellipse;whiteSpace=wrap;html=1;" parent="1" vertex="1">
          <mxGeometry x="-193.62" y="-240" width="152" height="40" as="geometry" />
        </mxCell>
        <mxCell id="ZPJrdM8qo10nO9XoSct2-17" value="" style="endArrow=none;html=1;rounded=0;entryX=0;entryY=0.5;entryDx=0;entryDy=0;exitX=1;exitY=0.5;exitDx=0;exitDy=0;" parent="1" source="ZPJrdM8qo10nO9XoSct2-15" edge="1">
          <mxGeometry width="50" height="50" relative="1" as="geometry">
            <mxPoint x="-46.499999999995" y="-220" as="sourcePoint" />
            <mxPoint x="22.5" y="-246.00000000000023" as="targetPoint" />
            <Array as="points">
              <mxPoint x="-10" y="-220" />
              <mxPoint x="-10" y="-246" />
            </Array>
          </mxGeometry>
        </mxCell>
        <mxCell id="ZPJrdM8qo10nO9XoSct2-18" value="LocationUsage" style="ellipse;whiteSpace=wrap;html=1;" parent="1" vertex="1">
          <mxGeometry x="1017" y="-167" width="153" height="42" as="geometry" />
        </mxCell>
        <mxCell id="ZPJrdM8qo10nO9XoSct2-19" value="" style="endArrow=none;html=1;rounded=0;exitX=1;exitY=0.5;exitDx=0;exitDy=0;entryX=0;entryY=0.5;entryDx=0;entryDy=0;" parent="1" source="kAmNbd_d05ljZrrda5HX-5" target="ZPJrdM8qo10nO9XoSct2-18" edge="1">
          <mxGeometry width="50" height="50" relative="1" as="geometry">
            <mxPoint x="924.5" y="-178" as="sourcePoint" />
            <mxPoint x="1012.5" y="-125" as="targetPoint" />
            <Array as="points">
              <mxPoint x="974.5" y="-246" />
              <mxPoint x="974.5" y="-146" />
            </Array>
          </mxGeometry>
        </mxCell>
        <mxCell id="ZPJrdM8qo10nO9XoSct2-20" value="SportsType" style="ellipse;whiteSpace=wrap;html=1;" parent="1" vertex="1">
          <mxGeometry x="231.5" y="1360" width="136" height="40" as="geometry" />
        </mxCell>
        <mxCell id="ZPJrdM8qo10nO9XoSct2-21" value="" style="endArrow=none;html=1;rounded=0;exitX=1;exitY=0.5;exitDx=0;exitDy=0;entryX=0.058;entryY=-0.049;entryDx=0;entryDy=0;entryPerimeter=0;" parent="1" source="ZPJrdM8qo10nO9XoSct2-20" target="DCmgsxbjKsTqkuRd_Q3x-349" edge="1">
          <mxGeometry width="50" height="50" relative="1" as="geometry">
            <mxPoint x="389.9999999999968" y="1380" as="sourcePoint" />
            <mxPoint x="513" y="1090" as="targetPoint" />
            <Array as="points">
              <mxPoint x="520" y="1380" />
            </Array>
          </mxGeometry>
        </mxCell>
        <mxCell id="ZPJrdM8qo10nO9XoSct2-22" value="SportingLocation" style="ellipse;whiteSpace=wrap;html=1;" parent="1" vertex="1">
          <mxGeometry x="242" y="1790" width="148" height="50" as="geometry" />
        </mxCell>
        <mxCell id="ZPJrdM8qo10nO9XoSct2-24" value="" style="endArrow=none;html=1;rounded=0;entryX=0;entryY=0.5;entryDx=0;entryDy=0;exitX=1;exitY=0.5;exitDx=0;exitDy=0;" parent="1" source="ZPJrdM8qo10nO9XoSct2-22" target="QD1m-1uply2OvwpmF5vF-46" edge="1">
          <mxGeometry width="50" height="50" relative="1" as="geometry">
            <mxPoint x="407.5" y="1822" as="sourcePoint" />
            <mxPoint x="529.5" y="1710" as="targetPoint" />
            <Array as="points">
              <mxPoint x="450" y="1815" />
              <mxPoint x="450" y="1770" />
              <mxPoint x="450" y="1720" />
              <mxPoint x="450" y="1623" />
            </Array>
          </mxGeometry>
        </mxCell>
        <mxCell id="ZPJrdM8qo10nO9XoSct2-25" value="Nationality" style="ellipse;whiteSpace=wrap;html=1;" parent="1" vertex="1">
          <mxGeometry x="1535" y="645" width="140" height="50" as="geometry" />
        </mxCell>
        <mxCell id="ZPJrdM8qo10nO9XoSct2-26" value="" style="endArrow=none;html=1;rounded=0;exitX=1;exitY=0.5;exitDx=0;exitDy=0;entryX=0;entryY=0.5;entryDx=0;entryDy=0;" parent="1" source="kAmNbd_d05ljZrrda5HX-22" target="ZPJrdM8qo10nO9XoSct2-25" edge="1">
          <mxGeometry width="50" height="50" relative="1" as="geometry">
            <mxPoint x="1433" y="455" as="sourcePoint" />
            <mxPoint x="1563" y="634" as="targetPoint" />
            <Array as="points">
              <mxPoint x="1430" y="410" />
              <mxPoint x="1430" y="670" />
            </Array>
          </mxGeometry>
        </mxCell>
        <mxCell id="i6Z4MXMXHm8q-6RhuV9Y-7" value="" style="ellipse;whiteSpace=wrap;html=1;" parent="1" vertex="1">
          <mxGeometry x="-140" y="1690" width="200" height="80" as="geometry" />
        </mxCell>
        <mxCell id="i6Z4MXMXHm8q-6RhuV9Y-8" value="SupervisorEmail" style="ellipse;whiteSpace=wrap;html=1;" parent="1" vertex="1">
          <mxGeometry x="-404" y="935.5" width="162" height="60" as="geometry" />
        </mxCell>
        <mxCell id="i6Z4MXMXHm8q-6RhuV9Y-9" value="" style="endArrow=none;html=1;rounded=0;exitX=1;exitY=0.5;exitDx=0;exitDy=0;entryX=0;entryY=0.5;entryDx=0;entryDy=0;" parent="1" target="kAmNbd_d05ljZrrda5HX-14" edge="1">
          <mxGeometry width="50" height="50" relative="1" as="geometry">
            <mxPoint x="-228" y="970" as="sourcePoint" />
            <mxPoint x="-150" y="890" as="targetPoint" />
            <Array as="points">
              <mxPoint x="-170" y="970" />
              <mxPoint x="-170" y="826" />
            </Array>
          </mxGeometry>
        </mxCell>
      </root>
    </mxGraphModel>
  </diagram>
</mxfile>
